<svg width="275" height="154" viewBox="0 0 275 154" fill="none" xmlns="http://www.w3.org/2000/svg">
<g style="mix-blend-mode:hard-light" filter="url(#filter0_f_50_3)">
<path d="M66.816 111.48H63.0243V115.272H66.816V111.48ZM66.816 88.824H70.6077V85.0323H66.816V88.824ZM25.472 85.496L22.7909 88.1771L22.8162 88.2024L22.8419 88.2272L25.472 85.496ZM22.016 42.36V38.5683H18.2243V42.36H22.016ZM23.296 42.36H27.0877V38.5683H23.296V42.36ZM26.496 84.6L23.8702 87.3353L23.8992 87.3631L23.9288 87.3904L26.496 84.6ZM66.816 87.544V91.3357H70.6077V87.544H66.816ZM66.816 42.36V38.5683H63.0243V42.36H66.816ZM68.096 42.36H71.8877V38.5683H68.096V42.36ZM68.096 111.48V115.272H71.8877V111.48H68.096ZM70.6077 111.48V88.824H63.0243V111.48H70.6077ZM66.816 85.0323H36.224V92.6157H66.816V85.0323ZM36.224 85.0323C31.8418 85.0323 29.4072 84.0216 28.1021 82.7648L22.8419 88.2272C26.1448 91.4077 30.8782 92.6157 36.224 92.6157V85.0323ZM28.1531 82.8149C26.7865 81.4483 25.8077 79.1888 25.8077 75.384H18.2243C18.2243 80.4539 19.5495 84.9357 22.7909 88.1771L28.1531 82.8149ZM25.8077 75.384V42.36H18.2243V75.384H25.8077ZM22.016 46.1517H23.296V38.5683H22.016V46.1517ZM19.5043 42.36V75.384H27.0877V42.36H19.5043ZM19.5043 75.384C19.5043 80.1048 20.7418 84.332 23.8702 87.3353L29.1219 81.8647C27.9835 80.7719 27.0877 78.8552 27.0877 75.384H19.5043ZM23.9288 87.3904C27.0421 90.2546 31.3862 91.3357 36.224 91.3357V83.7523C32.3578 83.7523 30.2166 82.8707 29.0632 81.8096L23.9288 87.3904ZM36.224 91.3357H66.816V83.7523H36.224V91.3357ZM70.6077 87.544V42.36H63.0243V87.544H70.6077ZM66.816 46.1517H68.096V38.5683H66.816V46.1517ZM64.3043 42.36V111.48H71.8877V42.36H64.3043ZM68.096 107.688H66.816V115.272H68.096V107.688ZM113.15 51.064L109.582 49.7797L109.582 49.7797L113.15 51.064ZM117.118 45.688L119.436 48.6883L119.478 48.656L119.519 48.6226L117.118 45.688ZM124.798 42.104L123.856 38.4311L123.845 38.4341L123.833 38.4372L124.798 42.104ZM157.31 45.688L154.733 48.4689L154.749 48.4844L154.766 48.4997L157.31 45.688ZM157.31 108.408L159.85 111.223L159.854 111.22L157.31 108.408ZM124.798 111.864L123.833 115.531L123.845 115.534L123.856 115.537L124.798 111.864ZM117.118 108.408L114.717 111.343L114.758 111.376L114.8 111.408L117.118 108.408ZM118.398 46.456L115.942 43.567H115.942L118.398 46.456ZM118.398 107.512L115.942 110.401L118.398 107.512ZM156.158 107.512L153.738 104.593L156.158 107.512ZM156.158 46.584L153.696 49.4678L153.717 49.4854L153.738 49.5027L156.158 46.584ZM115.79 95.864V58.104H108.206V95.864H115.79ZM115.79 58.104C115.79 55.9259 116.116 54.0202 116.718 52.3483L109.582 49.7797C108.648 52.3745 108.206 55.1621 108.206 58.104H115.79ZM116.718 52.3483C117.229 50.9266 118.102 49.7191 119.436 48.6883L114.8 42.6877C112.379 44.5583 110.607 46.9347 109.582 49.7797L116.718 52.3483ZM119.519 48.6226C120.847 47.5359 122.857 46.5355 125.763 45.7708L123.833 38.4372C120.253 39.3792 117.143 40.7681 114.717 42.7534L119.519 48.6226ZM125.74 45.7768C128.658 45.0286 132.456 44.6157 137.214 44.6157V37.0323C132.074 37.0323 127.594 37.4727 123.856 38.4311L125.74 45.7768ZM137.214 44.6157C141.981 44.6157 145.809 45.0086 148.77 45.7253C151.752 46.447 153.624 47.4411 154.733 48.4689L159.887 42.9071C157.498 40.6923 154.271 39.2543 150.554 38.3547C146.816 37.4501 142.345 37.0323 137.214 37.0323V44.6157ZM154.766 48.4997C157.519 50.9902 158.894 54.0901 158.894 58.104H166.478C166.478 52.0485 164.269 46.8711 159.854 42.8763L154.766 48.4997ZM158.894 58.104V95.864H166.478V58.104H158.894ZM158.894 95.864C158.894 99.9843 157.504 103.119 154.766 105.596L159.854 111.22C164.284 107.211 166.478 101.984 166.478 95.864H158.894ZM154.77 105.593C153.663 106.592 151.786 107.564 148.792 108.269C145.822 108.969 141.986 109.352 137.214 109.352V116.936C142.34 116.936 146.803 116.529 150.532 115.651C154.236 114.778 157.458 113.382 159.85 111.223L154.77 105.593ZM137.214 109.352C132.456 109.352 128.658 108.939 125.74 108.191L123.856 115.537C127.594 116.495 132.074 116.936 137.214 116.936V109.352ZM125.763 108.197C122.823 107.424 120.782 106.448 119.436 105.408L114.8 111.408C117.209 113.27 120.287 114.598 123.833 115.531L125.763 108.197ZM119.519 105.473C118.134 104.34 117.237 103.062 116.718 101.62L109.582 104.188C110.599 107.012 112.347 109.404 114.717 111.343L119.519 105.473ZM116.718 101.62C116.116 99.9478 115.79 98.0421 115.79 95.864H108.206C108.206 98.8059 108.648 101.593 109.582 104.188L116.718 101.62ZM137.214 38.3123C127.969 38.3123 120.466 39.7222 115.942 43.567L120.854 49.345C123.157 47.3871 128.198 45.8957 137.214 45.8957V38.3123ZM115.942 43.567C111.602 47.2559 109.486 52.2357 109.486 58.104H117.07C117.07 54.2443 118.367 51.4588 120.854 49.345L115.942 43.567ZM109.486 58.104V95.864H117.07V58.104H109.486ZM109.486 95.864C109.486 101.732 111.602 106.712 115.942 110.401L120.854 104.623C118.367 102.509 117.07 99.7237 117.07 95.864H109.486ZM115.942 110.401C120.466 114.246 127.969 115.656 137.214 115.656V108.072C128.198 108.072 123.157 106.581 120.854 104.623L115.942 110.401ZM137.214 115.656C146.475 115.656 153.986 114.239 158.578 110.431L153.738 104.593C151.333 106.587 146.214 108.072 137.214 108.072V115.656ZM158.578 110.431C163.013 106.753 165.198 101.766 165.198 95.864H157.614C157.614 99.6899 156.3 102.468 153.738 104.593L158.578 110.431ZM165.198 95.864V58.104H157.614V95.864H165.198ZM165.198 58.104C165.198 52.2634 162.996 47.3284 158.578 43.6653L153.738 49.5027C156.318 51.6422 157.614 54.3873 157.614 58.104H165.198ZM158.62 43.7002C154.021 39.7744 146.489 38.3123 137.214 38.3123V45.8957C146.2 45.8957 151.298 47.4202 153.696 49.4678L158.62 43.7002ZM250.566 111.48H246.774V115.272H250.566V111.48ZM250.566 88.824H254.358V85.0323H250.566V88.824ZM209.222 85.496L206.541 88.1771L206.566 88.2024L206.592 88.2272L209.222 85.496ZM205.766 42.36V38.5683H201.974V42.36H205.766ZM207.046 42.36H210.838V38.5683H207.046V42.36ZM210.246 84.6L207.62 87.3353L207.649 87.3631L207.679 87.3904L210.246 84.6ZM250.566 87.544V91.3357H254.358V87.544H250.566ZM250.566 42.36V38.5683H246.774V42.36H250.566ZM251.846 42.36H255.638V38.5683H251.846V42.36ZM251.846 111.48V115.272H255.638V111.48H251.846ZM254.358 111.48V88.824H246.774V111.48H254.358ZM250.566 85.0323H219.974V92.6157H250.566V85.0323ZM219.974 85.0323C215.592 85.0323 213.157 84.0216 211.852 82.7648L206.592 88.2272C209.895 91.4077 214.628 92.6157 219.974 92.6157V85.0323ZM211.903 82.8149C210.536 81.4483 209.558 79.1888 209.558 75.384H201.974C201.974 80.4539 203.3 84.9357 206.541 88.1771L211.903 82.8149ZM209.558 75.384V42.36H201.974V75.384H209.558ZM205.766 46.1517H207.046V38.5683H205.766V46.1517ZM203.254 42.36V75.384H210.838V42.36H203.254ZM203.254 75.384C203.254 80.1048 204.492 84.332 207.62 87.3353L212.872 81.8647C211.734 80.7719 210.838 78.8552 210.838 75.384H203.254ZM207.679 87.3904C210.792 90.2546 215.136 91.3357 219.974 91.3357V83.7523C216.108 83.7523 213.967 82.8707 212.813 81.8096L207.679 87.3904ZM219.974 91.3357H250.566V83.7523H219.974V91.3357ZM254.358 87.544V42.36H246.774V87.544H254.358ZM250.566 46.1517H251.846V38.5683H250.566V46.1517ZM248.054 42.36V111.48H255.638V42.36H248.054ZM251.846 107.688H250.566V115.272H251.846V107.688Z" fill="#FFE3B3"/>
</g>
<g style="mix-blend-mode:hard-light" filter="url(#filter1_f_50_3)">
<path d="M66.816 111.48H61.8577V116.438H66.816V111.48ZM66.816 88.824H71.7743V83.8657H66.816V88.824ZM25.472 85.496L21.9659 89.0021L21.999 89.0351L22.0327 89.0676L25.472 85.496ZM22.016 42.36V37.4017H17.0577V42.36H22.016ZM23.296 42.36H28.2543V37.4017H23.296V42.36ZM26.496 84.6L23.0622 88.1769L23.1002 88.2133L23.1389 88.249L26.496 84.6ZM66.816 87.544V92.5023H71.7743V87.544H66.816ZM66.816 42.36V37.4017H61.8577V42.36H66.816ZM68.096 42.36H73.0543V37.4017H68.096V42.36ZM68.096 111.48V116.438H73.0543V111.48H68.096ZM71.7743 111.48V88.824H61.8577V111.48H71.7743ZM66.816 83.8657H36.224V93.7823H66.816V83.8657ZM36.224 83.8657C31.99 83.8657 29.9092 82.8853 28.9113 81.9244L22.0327 89.0676C25.6428 92.544 30.73 93.7823 36.224 93.7823V83.8657ZM28.9781 81.9899C27.8999 80.9117 26.9743 78.9942 26.9743 75.384H17.0577C17.0577 80.6485 18.4361 85.4723 21.9659 89.0021L28.9781 81.9899ZM26.9743 75.384V42.36H17.0577V75.384H26.9743ZM22.016 47.3183H23.296V37.4017H22.016V47.3183ZM18.3377 42.36V75.384H28.2543V42.36H18.3377ZM18.3377 75.384C18.3377 80.297 19.6277 84.8798 23.0622 88.1769L29.9298 81.0231C29.0976 80.2242 28.2543 78.663 28.2543 75.384H18.3377ZM23.1389 88.249C26.5537 91.3906 31.2367 92.5023 36.224 92.5023V82.5857C32.5073 82.5857 30.7049 81.7347 29.8531 80.951L23.1389 88.249ZM36.224 92.5023H66.816V82.5857H36.224V92.5023ZM71.7743 87.544V42.36H61.8577V87.544H71.7743ZM66.816 47.3183H68.096V37.4017H66.816V47.3183ZM63.1377 42.36V111.48H73.0543V42.36H63.1377ZM68.096 106.522H66.816V116.438H68.096V106.522ZM113.15 51.064L108.485 49.3845L108.485 49.3845L113.15 51.064ZM117.118 45.688L120.15 49.6115L120.204 49.5692L120.258 49.5255L117.118 45.688ZM124.798 42.104L123.566 37.301L123.551 37.3049L123.536 37.3089L124.798 42.104ZM157.31 45.688L153.939 49.3246L153.961 49.3448L153.983 49.3648L157.31 45.688ZM157.31 108.408L160.632 112.089L160.637 112.085L157.31 108.408ZM124.798 111.864L123.536 116.659L123.551 116.663L123.566 116.667L124.798 111.864ZM117.118 108.408L113.978 112.246L114.032 112.289L114.086 112.331L117.118 108.408ZM118.398 46.456L115.187 42.678V42.678L118.398 46.456ZM118.398 107.512L115.187 111.29L118.398 107.512ZM156.158 107.512L152.993 103.695L156.158 107.512ZM156.158 46.584L152.939 50.3551L152.966 50.3781L152.993 50.4007L156.158 46.584ZM116.956 95.864V58.104H107.04V95.864H116.956ZM116.956 58.104C116.956 56.0434 117.264 54.2733 117.815 52.7435L108.485 49.3845C107.5 52.1213 107.04 55.0446 107.04 58.104H116.956ZM117.815 52.7435C118.248 51.5407 118.983 50.513 120.15 49.6115L114.086 41.7645C111.498 43.7643 109.588 46.3206 108.485 49.3845L117.815 52.7435ZM120.258 49.5255C121.417 48.5771 123.258 47.6364 126.06 46.8991L123.536 37.3089C119.853 38.2782 116.574 39.7269 113.978 41.8505L120.258 49.5255ZM126.03 46.907C128.821 46.1911 132.515 45.7823 137.214 45.7823V35.8657C132.015 35.8657 127.431 36.3102 123.566 37.301L126.03 46.907ZM137.214 45.7823C141.925 45.7823 145.654 46.1714 148.496 46.8592C151.364 47.5535 153.028 48.4793 153.939 49.3246L160.681 42.0514C158.094 39.654 154.658 38.1478 150.828 37.2208C146.971 36.2873 142.401 35.8657 137.214 35.8657V45.7823ZM153.983 49.3648C156.48 51.6239 157.728 54.4042 157.728 58.104H167.644C167.644 51.7344 165.308 46.2374 160.637 42.0112L153.983 49.3648ZM157.728 58.104V95.864H167.644V58.104H157.728ZM157.728 95.864C157.728 99.6767 156.461 102.49 153.983 104.731L160.637 112.085C165.327 107.841 167.644 102.291 167.644 95.864H157.728ZM153.988 104.727C153.079 105.547 151.41 106.454 148.525 107.134C145.671 107.806 141.932 108.186 137.214 108.186V118.102C142.395 118.102 146.954 117.692 150.799 116.786C154.613 115.887 158.042 114.426 160.632 112.089L153.988 104.727ZM137.214 108.186C132.515 108.186 128.821 107.777 126.03 107.061L123.566 116.667C127.431 117.658 132.015 118.102 137.214 118.102V108.186ZM126.06 107.069C123.214 106.32 121.332 105.398 120.15 104.485L114.086 112.331C116.659 114.319 119.897 115.701 123.536 116.659L126.06 107.069ZM120.258 104.57C119.024 103.561 118.258 102.455 117.815 101.225L108.485 104.583C109.578 107.62 111.457 110.183 113.978 112.246L120.258 104.57ZM117.815 101.225C117.264 99.6947 116.956 97.9246 116.956 95.864H107.04C107.04 98.9234 107.5 101.847 108.485 104.583L117.815 101.225ZM137.214 37.1457C127.934 37.1457 120.052 38.5429 115.187 42.678L121.609 50.2339C123.571 48.5664 128.233 47.0623 137.214 47.0623V37.1457ZM115.187 42.678C110.562 46.6093 108.32 51.9267 108.32 58.104H118.236C118.236 54.5533 119.408 52.1054 121.609 50.2339L115.187 42.678ZM108.32 58.104V95.864H118.236V58.104H108.32ZM108.32 95.864C108.32 102.041 110.562 107.359 115.187 111.29L121.609 103.734C119.408 101.863 118.236 99.4147 118.236 95.864H108.32ZM115.187 111.29C120.052 115.425 127.934 116.822 137.214 116.822V106.906C128.233 106.906 123.571 105.402 121.609 103.734L115.187 111.29ZM137.214 116.822C146.516 116.822 154.394 115.417 159.323 111.329L152.993 103.695C150.925 105.41 146.174 106.906 137.214 106.906V116.822ZM159.323 111.329C164.046 107.412 166.364 102.085 166.364 95.864H156.448C156.448 99.3706 155.268 101.809 152.993 103.695L159.323 111.329ZM166.364 95.864V58.104H156.448V95.864H166.364ZM166.364 58.104C166.364 51.9366 164.023 46.6648 159.323 42.7673L152.993 50.4007C155.29 52.3059 156.448 54.714 156.448 58.104H166.364ZM159.377 42.8129C154.44 38.5982 146.534 37.1457 137.214 37.1457V47.0623C146.156 47.0623 150.879 48.5965 152.939 50.3551L159.377 42.8129ZM250.566 111.48H245.608V116.438H250.566V111.48ZM250.566 88.824H255.524V83.8657H250.566V88.824ZM209.222 85.496L205.716 89.0021L205.749 89.0351L205.783 89.0676L209.222 85.496ZM205.766 42.36V37.4017H200.808V42.36H205.766ZM207.046 42.36H212.004V37.4017H207.046V42.36ZM210.246 84.6L206.812 88.1769L206.85 88.2133L206.889 88.249L210.246 84.6ZM250.566 87.544V92.5023H255.524V87.544H250.566ZM250.566 42.36V37.4017H245.608V42.36H250.566ZM251.846 42.36H256.804V37.4017H251.846V42.36ZM251.846 111.48V116.438H256.804V111.48H251.846ZM255.524 111.48V88.824H245.608V111.48H255.524ZM250.566 83.8657H219.974V93.7823H250.566V83.8657ZM219.974 83.8657C215.74 83.8657 213.659 82.8853 212.661 81.9244L205.783 89.0676C209.393 92.544 214.48 93.7823 219.974 93.7823V83.8657ZM212.728 81.9899C211.65 80.9117 210.724 78.9942 210.724 75.384H200.808C200.808 80.6485 202.186 85.4723 205.716 89.0021L212.728 81.9899ZM210.724 75.384V42.36H200.808V75.384H210.724ZM205.766 47.3183H207.046V37.4017H205.766V47.3183ZM202.088 42.36V75.384H212.004V42.36H202.088ZM202.088 75.384C202.088 80.297 203.378 84.8798 206.812 88.1769L213.68 81.0231C212.848 80.2242 212.004 78.663 212.004 75.384H202.088ZM206.889 88.249C210.304 91.3906 214.987 92.5023 219.974 92.5023V82.5857C216.257 82.5857 214.455 81.7347 213.603 80.951L206.889 88.249ZM219.974 92.5023H250.566V82.5857H219.974V92.5023ZM255.524 87.544V42.36H245.608V87.544H255.524ZM250.566 47.3183H251.846V37.4017H250.566V47.3183ZM246.888 42.36V111.48H256.804V42.36H246.888ZM251.846 106.522H250.566V116.438H251.846V106.522Z" fill="#FFE3B3"/>
</g>
<g style="mix-blend-mode:hard-light" filter="url(#filter2_ddi_50_3)">
<path d="M66.816 111.48H63.0243V115.272H66.816V111.48ZM66.816 88.824H70.6077V85.0323H66.816V88.824ZM25.472 85.496L22.7909 88.1771L22.8162 88.2024L22.8419 88.2272L25.472 85.496ZM22.016 42.36V38.5683H18.2243V42.36H22.016ZM23.296 42.36H27.0877V38.5683H23.296V42.36ZM26.496 84.6L23.8702 87.3353L23.8992 87.3631L23.9288 87.3904L26.496 84.6ZM66.816 87.544V91.3357H70.6077V87.544H66.816ZM66.816 42.36V38.5683H63.0243V42.36H66.816ZM68.096 42.36H71.8877V38.5683H68.096V42.36ZM68.096 111.48V115.272H71.8877V111.48H68.096ZM70.6077 111.48V88.824H63.0243V111.48H70.6077ZM66.816 85.0323H36.224V92.6157H66.816V85.0323ZM36.224 85.0323C31.8418 85.0323 29.4072 84.0216 28.1021 82.7648L22.8419 88.2272C26.1448 91.4077 30.8782 92.6157 36.224 92.6157V85.0323ZM28.1531 82.8149C26.7865 81.4483 25.8077 79.1888 25.8077 75.384H18.2243C18.2243 80.4539 19.5495 84.9357 22.7909 88.1771L28.1531 82.8149ZM25.8077 75.384V42.36H18.2243V75.384H25.8077ZM22.016 46.1517H23.296V38.5683H22.016V46.1517ZM19.5043 42.36V75.384H27.0877V42.36H19.5043ZM19.5043 75.384C19.5043 80.1048 20.7418 84.332 23.8702 87.3353L29.1219 81.8647C27.9835 80.7719 27.0877 78.8552 27.0877 75.384H19.5043ZM23.9288 87.3904C27.0421 90.2546 31.3862 91.3357 36.224 91.3357V83.7523C32.3578 83.7523 30.2166 82.8707 29.0632 81.8096L23.9288 87.3904ZM36.224 91.3357H66.816V83.7523H36.224V91.3357ZM70.6077 87.544V42.36H63.0243V87.544H70.6077ZM66.816 46.1517H68.096V38.5683H66.816V46.1517ZM64.3043 42.36V111.48H71.8877V42.36H64.3043ZM68.096 107.688H66.816V115.272H68.096V107.688ZM113.15 51.064L109.582 49.7797L109.582 49.7797L113.15 51.064ZM117.118 45.688L119.436 48.6883L119.478 48.656L119.519 48.6226L117.118 45.688ZM124.798 42.104L123.856 38.4311L123.845 38.4341L123.833 38.4372L124.798 42.104ZM157.31 45.688L154.733 48.4689L154.749 48.4844L154.766 48.4997L157.31 45.688ZM157.31 108.408L159.85 111.223L159.854 111.22L157.31 108.408ZM124.798 111.864L123.833 115.531L123.845 115.534L123.856 115.537L124.798 111.864ZM117.118 108.408L114.717 111.343L114.758 111.376L114.8 111.408L117.118 108.408ZM118.398 46.456L115.942 43.567H115.942L118.398 46.456ZM118.398 107.512L115.942 110.401L118.398 107.512ZM156.158 107.512L153.738 104.593L156.158 107.512ZM156.158 46.584L153.696 49.4678L153.717 49.4854L153.738 49.5027L156.158 46.584ZM115.79 95.864V58.104H108.206V95.864H115.79ZM115.79 58.104C115.79 55.9259 116.116 54.0202 116.718 52.3483L109.582 49.7797C108.648 52.3745 108.206 55.1621 108.206 58.104H115.79ZM116.718 52.3483C117.229 50.9266 118.102 49.7191 119.436 48.6883L114.8 42.6877C112.379 44.5583 110.607 46.9347 109.582 49.7797L116.718 52.3483ZM119.519 48.6226C120.847 47.5359 122.857 46.5355 125.763 45.7708L123.833 38.4372C120.253 39.3792 117.143 40.7681 114.717 42.7534L119.519 48.6226ZM125.74 45.7768C128.658 45.0286 132.456 44.6157 137.214 44.6157V37.0323C132.074 37.0323 127.594 37.4727 123.856 38.4311L125.74 45.7768ZM137.214 44.6157C141.981 44.6157 145.809 45.0086 148.77 45.7253C151.752 46.447 153.624 47.4411 154.733 48.4689L159.887 42.9071C157.498 40.6923 154.271 39.2543 150.554 38.3547C146.816 37.4501 142.345 37.0323 137.214 37.0323V44.6157ZM154.766 48.4997C157.519 50.9902 158.894 54.0901 158.894 58.104H166.478C166.478 52.0485 164.269 46.8711 159.854 42.8763L154.766 48.4997ZM158.894 58.104V95.864H166.478V58.104H158.894ZM158.894 95.864C158.894 99.9843 157.504 103.119 154.766 105.596L159.854 111.22C164.284 107.211 166.478 101.984 166.478 95.864H158.894ZM154.77 105.593C153.663 106.592 151.786 107.564 148.792 108.269C145.822 108.969 141.986 109.352 137.214 109.352V116.936C142.34 116.936 146.803 116.529 150.532 115.651C154.236 114.778 157.458 113.382 159.85 111.223L154.77 105.593ZM137.214 109.352C132.456 109.352 128.658 108.939 125.74 108.191L123.856 115.537C127.594 116.495 132.074 116.936 137.214 116.936V109.352ZM125.763 108.197C122.823 107.424 120.782 106.448 119.436 105.408L114.8 111.408C117.209 113.27 120.287 114.598 123.833 115.531L125.763 108.197ZM119.519 105.473C118.134 104.34 117.237 103.062 116.718 101.62L109.582 104.188C110.599 107.012 112.347 109.404 114.717 111.343L119.519 105.473ZM116.718 101.62C116.116 99.9478 115.79 98.0421 115.79 95.864H108.206C108.206 98.8059 108.648 101.593 109.582 104.188L116.718 101.62ZM137.214 38.3123C127.969 38.3123 120.466 39.7222 115.942 43.567L120.854 49.345C123.157 47.3871 128.198 45.8957 137.214 45.8957V38.3123ZM115.942 43.567C111.602 47.2559 109.486 52.2357 109.486 58.104H117.07C117.07 54.2443 118.367 51.4588 120.854 49.345L115.942 43.567ZM109.486 58.104V95.864H117.07V58.104H109.486ZM109.486 95.864C109.486 101.732 111.602 106.712 115.942 110.401L120.854 104.623C118.367 102.509 117.07 99.7237 117.07 95.864H109.486ZM115.942 110.401C120.466 114.246 127.969 115.656 137.214 115.656V108.072C128.198 108.072 123.157 106.581 120.854 104.623L115.942 110.401ZM137.214 115.656C146.475 115.656 153.986 114.239 158.578 110.431L153.738 104.593C151.333 106.587 146.214 108.072 137.214 108.072V115.656ZM158.578 110.431C163.013 106.753 165.198 101.766 165.198 95.864H157.614C157.614 99.6899 156.3 102.468 153.738 104.593L158.578 110.431ZM165.198 95.864V58.104H157.614V95.864H165.198ZM165.198 58.104C165.198 52.2634 162.996 47.3284 158.578 43.6653L153.738 49.5027C156.318 51.6422 157.614 54.3873 157.614 58.104H165.198ZM158.62 43.7002C154.021 39.7744 146.489 38.3123 137.214 38.3123V45.8957C146.2 45.8957 151.298 47.4202 153.696 49.4678L158.62 43.7002ZM250.566 111.48H246.774V115.272H250.566V111.48ZM250.566 88.824H254.358V85.0323H250.566V88.824ZM209.222 85.496L206.541 88.1771L206.566 88.2024L206.592 88.2272L209.222 85.496ZM205.766 42.36V38.5683H201.974V42.36H205.766ZM207.046 42.36H210.838V38.5683H207.046V42.36ZM210.246 84.6L207.62 87.3353L207.649 87.3631L207.679 87.3904L210.246 84.6ZM250.566 87.544V91.3357H254.358V87.544H250.566ZM250.566 42.36V38.5683H246.774V42.36H250.566ZM251.846 42.36H255.638V38.5683H251.846V42.36ZM251.846 111.48V115.272H255.638V111.48H251.846ZM254.358 111.48V88.824H246.774V111.48H254.358ZM250.566 85.0323H219.974V92.6157H250.566V85.0323ZM219.974 85.0323C215.592 85.0323 213.157 84.0216 211.852 82.7648L206.592 88.2272C209.895 91.4077 214.628 92.6157 219.974 92.6157V85.0323ZM211.903 82.8149C210.536 81.4483 209.558 79.1888 209.558 75.384H201.974C201.974 80.4539 203.3 84.9357 206.541 88.1771L211.903 82.8149ZM209.558 75.384V42.36H201.974V75.384H209.558ZM205.766 46.1517H207.046V38.5683H205.766V46.1517ZM203.254 42.36V75.384H210.838V42.36H203.254ZM203.254 75.384C203.254 80.1048 204.492 84.332 207.62 87.3353L212.872 81.8647C211.734 80.7719 210.838 78.8552 210.838 75.384H203.254ZM207.679 87.3904C210.792 90.2546 215.136 91.3357 219.974 91.3357V83.7523C216.108 83.7523 213.967 82.8707 212.813 81.8096L207.679 87.3904ZM219.974 91.3357H250.566V83.7523H219.974V91.3357ZM254.358 87.544V42.36H246.774V87.544H254.358ZM250.566 46.1517H251.846V38.5683H250.566V46.1517ZM248.054 42.36V111.48H255.638V42.36H248.054ZM251.846 107.688H250.566V115.272H251.846V107.688Z" fill="#FFE3B3"/>
</g>
<g filter="url(#filter3_f_50_3)">
<path d="M66.816 111.48H64.4827V113.813H66.816V111.48ZM66.816 88.824H69.1493V86.4907H66.816V88.824ZM25.472 85.496L23.8221 87.1459L23.8377 87.1615L23.8535 87.1767L25.472 85.496ZM22.016 42.36V40.0267H19.6827V42.36H22.016ZM23.296 42.36H25.6293V40.0267H23.296V42.36ZM26.496 84.6L24.8801 86.2832L24.898 86.3004L24.9162 86.3172L26.496 84.6ZM66.816 87.544V89.8773H69.1493V87.544H66.816ZM66.816 42.36V40.0267H64.4827V42.36H66.816ZM68.096 42.36H70.4293V40.0267H68.096V42.36ZM68.096 111.48V113.813H70.4293V111.48H68.096ZM69.1493 111.48V88.824H64.4827V111.48H69.1493ZM66.816 86.4907H36.224V91.1573H66.816V86.4907ZM36.224 86.4907C31.6565 86.4907 28.7798 85.442 27.0905 83.8153L23.8535 87.1767C26.7722 89.9873 31.0635 91.1573 36.224 91.1573V86.4907ZM27.1219 83.8461C25.3948 82.1189 24.3493 79.4321 24.3493 75.384H19.6827C19.6827 80.2106 20.9412 84.2651 23.8221 87.1459L27.1219 83.8461ZM24.3493 75.384V42.36H19.6827V75.384H24.3493ZM22.016 44.6933H23.296V40.0267H22.016V44.6933ZM20.9627 42.36V75.384H25.6293V42.36H20.9627ZM20.9627 75.384C20.9627 79.8645 22.1344 83.6474 24.8801 86.2832L28.1119 82.9168C26.5909 81.4566 25.6293 79.0955 25.6293 75.384H20.9627ZM24.9162 86.3172C27.6526 88.8346 31.573 89.8773 36.224 89.8773V85.2107C32.171 85.2107 29.6061 84.2907 28.0758 82.8828L24.9162 86.3172ZM36.224 89.8773H66.816V85.2107H36.224V89.8773ZM69.1493 87.544V42.36H64.4827V87.544H69.1493ZM66.816 44.6933H68.096V40.0267H66.816V44.6933ZM65.7627 42.36V111.48H70.4293V42.36H65.7627ZM68.096 109.147H66.816V113.813H68.096V109.147ZM113.15 51.064L110.955 50.2736V50.2737L113.15 51.064ZM117.118 45.688L118.545 47.5343L118.57 47.5145L118.596 47.4939L117.118 45.688ZM124.798 42.104L124.218 39.8438L124.211 39.8456L124.204 39.8475L124.798 42.104ZM157.31 45.688L155.724 47.3993L155.734 47.4089L155.745 47.4182L157.31 45.688ZM157.31 108.408L158.873 110.14L158.875 110.138L157.31 108.408ZM124.798 111.864L124.204 114.121L124.211 114.122L124.218 114.124L124.798 111.864ZM117.118 108.408L115.64 110.214L115.666 110.234L115.691 110.254L117.118 108.408ZM118.398 46.456L116.887 44.6781H116.887L118.398 46.456ZM118.398 107.512L116.887 109.29L118.398 107.512ZM156.158 107.512L154.669 105.716L156.158 107.512ZM156.158 46.584L154.643 48.3587L154.656 48.3695L154.669 48.3801L156.158 46.584ZM114.331 95.864V58.104H109.665V95.864H114.331ZM114.331 58.104C114.331 55.779 114.68 53.7037 115.345 51.8543L110.955 50.2737C110.084 52.691 109.665 55.309 109.665 58.104H114.331ZM115.345 51.8543C115.956 50.1589 117.002 48.7266 118.545 47.5343L115.691 43.8417C113.48 45.5507 111.88 47.7024 110.955 50.2736L115.345 51.8543ZM118.596 47.4939C120.135 46.2344 122.357 45.1593 125.392 44.3605L124.204 39.8475C120.754 40.7554 117.856 42.0696 115.64 43.8821L118.596 47.4939ZM125.378 44.3642C128.453 43.5756 132.382 43.1573 137.214 43.1573V38.4907C132.147 38.4907 127.799 38.9258 124.218 39.8438L125.378 44.3642ZM137.214 43.1573C142.051 43.1573 146.003 43.555 149.113 44.3078C152.236 45.0638 154.369 46.1432 155.724 47.3993L158.896 43.9767C156.753 41.9901 153.786 40.6375 150.211 39.7721C146.623 38.9036 142.275 38.4907 137.214 38.4907V43.1573ZM155.745 47.4182C158.817 50.1981 160.353 53.6975 160.353 58.104H165.019C165.019 52.4411 162.971 47.6632 158.875 43.9577L155.745 47.4182ZM160.353 58.104V95.864H165.019V58.104H160.353ZM160.353 95.864C160.353 100.369 158.808 103.906 155.745 106.678L158.875 110.138C162.98 106.424 165.019 101.599 165.019 95.864H160.353ZM155.747 106.676C154.393 107.897 152.258 108.951 149.127 109.689C146.011 110.423 142.054 110.811 137.214 110.811V115.477C142.272 115.477 146.615 115.075 150.197 114.231C153.765 113.39 156.728 112.076 158.873 110.14L155.747 106.676ZM137.214 110.811C132.382 110.811 128.453 110.392 125.378 109.604L124.218 114.124C127.799 115.042 132.147 115.477 137.214 115.477V110.811ZM125.392 109.607C122.336 108.803 120.095 107.76 118.545 106.562L115.691 110.254C117.896 111.958 120.775 113.218 124.204 114.121L125.392 109.607ZM118.596 106.602C117.021 105.314 115.96 103.822 115.345 102.114L110.955 103.694C111.876 106.253 113.46 108.43 115.64 110.214L118.596 106.602ZM115.345 102.114C114.68 100.264 114.331 98.189 114.331 95.864H109.665C109.665 98.659 110.084 101.277 110.955 103.694L115.345 102.114ZM137.214 39.7707C128.013 39.7707 120.983 41.1962 116.887 44.6781L119.909 48.2339C122.639 45.9131 128.154 44.4373 137.214 44.4373V39.7707ZM116.887 44.6781C112.903 48.0641 110.945 52.622 110.945 58.104H115.611C115.611 53.858 117.066 50.6505 119.909 48.2339L116.887 44.6781ZM110.945 58.104V95.864H115.611V58.104H110.945ZM110.945 95.864C110.945 101.346 112.903 105.904 116.887 109.29L119.909 105.734C117.066 103.317 115.611 100.11 115.611 95.864H110.945ZM116.887 109.29C120.983 112.772 128.013 114.197 137.214 114.197V109.531C128.154 109.531 122.639 108.055 119.909 105.734L116.887 109.29ZM137.214 114.197C146.425 114.197 153.475 112.768 157.647 109.308L154.669 105.716C151.843 108.059 146.264 109.531 137.214 109.531V114.197ZM157.647 109.308C161.722 105.929 163.739 101.367 163.739 95.864H159.073C159.073 100.089 157.591 103.292 154.669 105.716L157.647 109.308ZM163.739 95.864V58.104H159.073V95.864H163.739ZM163.739 58.104C163.739 52.6718 161.711 48.158 157.647 44.7879L154.669 48.3801C157.602 50.8126 159.073 53.9788 159.073 58.104H163.739ZM157.673 44.8093C153.497 41.2448 146.434 39.7707 137.214 39.7707V44.4373C146.256 44.4373 151.821 45.9499 154.643 48.3587L157.673 44.8093ZM250.566 111.48H248.233V113.813H250.566V111.48ZM250.566 88.824H252.899V86.4907H250.566V88.824ZM209.222 85.496L207.572 87.1459L207.588 87.1615L207.604 87.1767L209.222 85.496ZM205.766 42.36V40.0267H203.433V42.36H205.766ZM207.046 42.36H209.379V40.0267H207.046V42.36ZM210.246 84.6L208.63 86.2832L208.648 86.3004L208.666 86.3172L210.246 84.6ZM250.566 87.544V89.8773H252.899V87.544H250.566ZM250.566 42.36V40.0267H248.233V42.36H250.566ZM251.846 42.36H254.179V40.0267H251.846V42.36ZM251.846 111.48V113.813H254.179V111.48H251.846ZM252.899 111.48V88.824H248.233V111.48H252.899ZM250.566 86.4907H219.974V91.1573H250.566V86.4907ZM219.974 86.4907C215.406 86.4907 212.53 85.442 210.84 83.8153L207.604 87.1767C210.522 89.9873 214.814 91.1573 219.974 91.1573V86.4907ZM210.872 83.8461C209.145 82.1189 208.099 79.4321 208.099 75.384H203.433C203.433 80.2106 204.691 84.2651 207.572 87.1459L210.872 83.8461ZM208.099 75.384V42.36H203.433V75.384H208.099ZM205.766 44.6933H207.046V40.0267H205.766V44.6933ZM204.713 42.36V75.384H209.379V42.36H204.713ZM204.713 75.384C204.713 79.8645 205.884 83.6474 208.63 86.2832L211.862 82.9168C210.341 81.4566 209.379 79.0955 209.379 75.384H204.713ZM208.666 86.3172C211.403 88.8346 215.323 89.8773 219.974 89.8773V85.2107C215.921 85.2107 213.356 84.2907 211.826 82.8828L208.666 86.3172ZM219.974 89.8773H250.566V85.2107H219.974V89.8773ZM252.899 87.544V42.36H248.233V87.544H252.899ZM250.566 44.6933H251.846V40.0267H250.566V44.6933ZM249.513 42.36V111.48H254.179V42.36H249.513ZM251.846 109.147H250.566V113.813H251.846V109.147Z" fill="#FFE3B3"/>
</g>
<g filter="url(#filter4_f_50_3)">
<path d="M66.816 111.48H65.6493V112.647H66.816V111.48ZM66.816 88.824H67.9827V87.6573H66.816V88.824ZM25.472 85.496L24.647 86.321L24.6548 86.3287L24.6628 86.3364L25.472 85.496ZM22.016 42.36V41.1933H20.8493V42.36H22.016ZM23.296 42.36H24.4627V41.1933H23.296V42.36ZM26.496 84.6L25.688 85.4416L25.697 85.4502L25.7061 85.4586L26.496 84.6ZM66.816 87.544V88.7107H67.9827V87.544H66.816ZM66.816 42.36V41.1933H65.6493V42.36H66.816ZM68.096 42.36H69.2627V41.1933H68.096V42.36ZM68.096 111.48V112.647H69.2627V111.48H68.096ZM67.9827 111.48V88.824H65.6493V111.48H67.9827ZM66.816 87.6573H36.224V89.9907H66.816V87.6573ZM36.224 87.6573C31.5082 87.6573 28.2779 86.5783 26.2812 84.6556L24.6628 86.3364C27.2741 88.851 31.2118 89.9907 36.224 89.9907V87.6573ZM26.297 84.671C24.2814 82.6555 23.1827 79.6267 23.1827 75.384H20.8493C20.8493 80.016 22.0546 83.7285 24.647 86.321L26.297 84.671ZM23.1827 75.384V42.36H20.8493V75.384H23.1827ZM22.016 43.5267H23.296V41.1933H22.016V43.5267ZM22.1293 42.36V75.384H24.4627V42.36H22.1293ZM22.1293 75.384C22.1293 79.6722 23.2486 83.0997 25.688 85.4416L27.304 83.7584C25.4768 82.0043 24.4627 79.2878 24.4627 75.384H22.1293ZM25.7061 85.4586C28.141 87.6987 31.7225 88.7107 36.224 88.7107V86.3773C32.0215 86.3773 29.1177 85.4267 27.2859 83.7414L25.7061 85.4586ZM36.224 88.7107H66.816V86.3773H36.224V88.7107ZM67.9827 87.544V42.36H65.6493V87.544H67.9827ZM66.816 43.5267H68.096V41.1933H66.816V43.5267ZM66.9293 42.36V111.48H69.2627V42.36H66.9293ZM68.096 110.313H66.816V112.647H68.096V110.313ZM113.15 51.064L112.052 50.6688L113.15 51.064ZM117.118 45.688L117.831 46.6112L117.844 46.6012L117.857 46.5909L117.118 45.688ZM124.798 42.104L124.508 40.9739L124.501 40.9757L124.798 42.104ZM157.31 45.688L156.517 46.5437L156.527 46.5531L157.31 45.688ZM157.31 108.408L158.092 109.274L158.093 109.273L157.31 108.408ZM124.798 111.864L124.501 112.992L124.508 112.994L124.798 111.864ZM117.118 108.408L116.379 109.311L116.392 109.321L116.405 109.331L117.118 108.408ZM118.398 46.456L117.642 45.5671V45.5671L118.398 46.456ZM118.398 107.512L117.642 108.401L118.398 107.512ZM156.158 107.512L155.413 106.614L156.158 107.512ZM156.158 46.584L155.401 47.4713L155.407 47.4767L155.413 47.4821L156.158 46.584ZM113.165 95.864V58.104H110.831V95.864H113.165ZM113.165 58.104C113.165 55.6615 113.531 53.4505 114.248 51.4592L112.052 50.6688C111.233 52.9442 110.831 55.4265 110.831 58.104H113.165ZM114.248 51.4592C114.937 49.5448 116.121 47.9326 117.831 46.6112L116.405 44.7648C114.36 46.3447 112.899 48.3165 112.052 50.6688L114.248 51.4592ZM117.857 46.5909C119.565 45.1932 121.956 44.0583 125.095 43.2323L124.501 40.9757C121.155 41.8564 118.426 43.1108 116.379 44.785L117.857 46.5909ZM125.088 43.2341C128.29 42.4131 132.323 41.9907 137.214 41.9907V39.6573C132.206 39.6573 127.962 40.0882 124.508 40.9739L125.088 43.2341ZM137.214 41.9907C142.107 41.9907 146.158 42.3922 149.388 43.1739C152.624 43.9572 154.965 45.1049 156.517 46.5437L158.103 44.8323C156.157 43.0284 153.399 41.7441 149.936 40.9061C146.468 40.0665 142.219 39.6573 137.214 39.6573V41.9907ZM156.527 46.5531C159.855 49.5644 161.519 53.3834 161.519 58.104H163.853C163.853 52.7552 161.933 48.297 158.093 44.8229L156.527 46.5531ZM161.519 58.104V95.864H163.853V58.104H161.519ZM161.519 95.864C161.519 100.676 159.851 104.536 156.527 107.543L158.093 109.273C161.937 105.795 163.853 101.292 163.853 95.864H161.519ZM156.528 107.542C154.977 108.942 152.634 110.061 149.394 110.824C146.162 111.586 142.109 111.977 137.214 111.977V114.311C142.218 114.311 146.464 113.912 149.93 113.096C153.388 112.28 156.145 111.031 158.092 109.274L156.528 107.542ZM137.214 111.977C132.323 111.977 128.29 111.555 125.088 110.734L124.508 112.994C127.962 113.88 132.206 114.311 137.214 114.311V111.977ZM125.095 110.736C121.945 109.907 119.545 108.809 117.831 107.485L116.405 109.331C118.446 110.908 121.165 112.114 124.501 112.992L125.095 110.736ZM117.857 107.505C116.131 106.093 114.939 104.43 114.248 102.509L112.052 103.299C112.897 105.645 114.35 107.651 116.379 109.311L117.857 107.505ZM114.248 102.509C113.531 100.517 113.165 98.3065 113.165 95.864H110.831C110.831 98.5415 111.233 101.024 112.052 103.299L114.248 102.509ZM137.214 40.9373C128.048 40.9373 121.397 42.3754 117.642 45.5671L119.154 47.3449C122.225 44.7339 128.118 43.2707 137.214 43.2707V40.9373ZM117.642 45.5671C113.944 48.7107 112.111 52.931 112.111 58.104H114.445C114.445 53.549 116.025 50.0039 119.154 47.3449L117.642 45.5671ZM112.111 58.104V95.864H114.445V58.104H112.111ZM112.111 95.864C112.111 101.037 113.944 105.257 117.642 108.401L119.154 106.623C116.025 103.964 114.445 100.419 114.445 95.864H112.111ZM117.642 108.401C121.397 111.593 128.048 113.031 137.214 113.031V110.697C128.118 110.697 122.225 109.234 119.154 106.623L117.642 108.401ZM137.214 113.031C146.385 113.031 153.067 111.591 156.903 108.41L155.413 106.614C152.251 109.236 146.304 110.697 137.214 110.697V113.031ZM156.903 108.41C160.689 105.27 162.573 101.047 162.573 95.864H160.239C160.239 100.409 158.624 103.951 155.413 106.614L156.903 108.41ZM162.573 95.864V58.104H160.239V95.864H162.573ZM162.573 58.104C162.573 52.9986 160.684 48.8217 156.903 45.6859L155.413 47.4821C158.629 50.149 160.239 53.6521 160.239 58.104H162.573ZM156.915 45.6967C153.078 42.4211 146.389 40.9373 137.214 40.9373V43.2707C146.3 43.2707 152.24 44.7736 155.401 47.4713L156.915 45.6967ZM250.566 111.48H249.399V112.647H250.566V111.48ZM250.566 88.824H251.733V87.6573H250.566V88.824ZM209.222 85.496L208.397 86.321L208.405 86.3287L208.413 86.3364L209.222 85.496ZM205.766 42.36V41.1933H204.599V42.36H205.766ZM207.046 42.36H208.213V41.1933H207.046V42.36ZM210.246 84.6L209.438 85.4416L209.447 85.4502L209.456 85.4586L210.246 84.6ZM250.566 87.544V88.7107H251.733V87.544H250.566ZM250.566 42.36V41.1933H249.399V42.36H250.566ZM251.846 42.36H253.013V41.1933H251.846V42.36ZM251.846 111.48V112.647H253.013V111.48H251.846ZM251.733 111.48V88.824H249.399V111.48H251.733ZM250.566 87.6573H219.974V89.9907H250.566V87.6573ZM219.974 87.6573C215.258 87.6573 212.028 86.5783 210.031 84.6556L208.413 86.3364C211.024 88.851 214.962 89.9907 219.974 89.9907V87.6573ZM210.047 84.671C208.031 82.6555 206.933 79.6267 206.933 75.384H204.599C204.599 80.016 205.805 83.7285 208.397 86.321L210.047 84.671ZM206.933 75.384V42.36H204.599V75.384H206.933ZM205.766 43.5267H207.046V41.1933H205.766V43.5267ZM205.879 42.36V75.384H208.213V42.36H205.879ZM205.879 75.384C205.879 79.6722 206.999 83.0997 209.438 85.4416L211.054 83.7584C209.227 82.0043 208.213 79.2878 208.213 75.384H205.879ZM209.456 85.4586C211.891 87.6987 215.473 88.7107 219.974 88.7107V86.3773C215.771 86.3773 212.868 85.4267 211.036 83.7414L209.456 85.4586ZM219.974 88.7107H250.566V86.3773H219.974V88.7107ZM251.733 87.544V42.36H249.399V87.544H251.733ZM250.566 43.5267H251.846V41.1933H250.566V43.5267ZM250.679 42.36V111.48H253.013V42.36H250.679ZM251.846 110.313H250.566V112.647H251.846V110.313Z" fill="white"/>
</g>
<defs>
<filter id="filter0_f_50_3" x="13.1781" y="31.9865" width="247.505" height="89.9951" filterUnits="userSpaceOnUse" color-interpolation-filters="sRGB">
<feFlood flood-opacity="0" result="BackgroundImageFix"/>
<feBlend mode="normal" in="SourceGraphic" in2="BackgroundImageFix" result="shape"/>
<feGaussianBlur stdDeviation="4.41875" result="effect1_foregroundBlur_50_3"/>
</filter>
<filter id="filter1_f_50_3" x="19.0698" y="37.8781" width="235.722" height="78.2117" filterUnits="userSpaceOnUse" color-interpolation-filters="sRGB">
<feFlood flood-opacity="0" result="BackgroundImageFix"/>
<feBlend mode="normal" in="SourceGraphic" in2="BackgroundImageFix" result="shape"/>
<feGaussianBlur stdDeviation="1.47292" result="effect1_foregroundBlur_50_3"/>
</filter>
<filter id="filter2_ddi_50_3" x="18.186" y="39.9402" width="237.489" height="79.9792" filterUnits="userSpaceOnUse" color-interpolation-filters="sRGB">
<feFlood flood-opacity="0" result="BackgroundImageFix"/>
<feColorMatrix in="SourceAlpha" type="matrix" values="0 0 0 0 0 0 0 0 0 0 0 0 0 0 0 0 0 0 127 0" result="hardAlpha"/>
<feOffset dy="3.79167"/>
<feGaussianBlur stdDeviation="1.45833"/>
<feColorMatrix type="matrix" values="0 0 0 0 0.3 0 0 0 0 0 0 0 0 0 0.26 0 0 0 0.7 0"/>
<feBlend mode="multiply" in2="BackgroundImageFix" result="effect1_dropShadow_50_3"/>
<feColorMatrix in="SourceAlpha" type="matrix" values="0 0 0 0 0 0 0 0 0 0 0 0 0 0 0 0 0 0 127 0" result="hardAlpha"/>
<feOffset dy="2.94583"/>
<feGaussianBlur stdDeviation="1.91479"/>
<feColorMatrix type="matrix" values="0 0 0 0 0.6 0 0 0 0 0 0 0 0 0 0.6 0 0 0 1 0"/>
<feBlend mode="color-dodge" in2="effect1_dropShadow_50_3" result="effect2_dropShadow_50_3"/>
<feBlend mode="normal" in="SourceGraphic" in2="effect2_dropShadow_50_3" result="shape"/>
<feColorMatrix in="SourceAlpha" type="matrix" values="0 0 0 0 0 0 0 0 0 0 0 0 0 0 0 0 0 0 127 0" result="hardAlpha"/>
<feOffset dx="-0.379167" dy="0.758333"/>
<feGaussianBlur stdDeviation="0.189583"/>
<feComposite in2="hardAlpha" operator="arithmetic" k2="-1" k3="1"/>
<feColorMatrix type="matrix" values="0 0 0 0 1 0 0 0 0 1 0 0 0 0 1 0 0 0 0.5 0"/>
<feBlend mode="normal" in2="shape" result="effect3_innerShadow_50_3"/>
</filter>
<filter id="filter3_f_50_3" x="21.4323" y="40.2406" width="230.997" height="73.4867" filterUnits="userSpaceOnUse" color-interpolation-filters="sRGB">
<feFlood flood-opacity="0" result="BackgroundImageFix"/>
<feBlend mode="normal" in="SourceGraphic" in2="BackgroundImageFix" result="shape"/>
<feGaussianBlur stdDeviation="0.291667" result="effect1_foregroundBlur_50_3"/>
</filter>
<filter id="filter4_f_50_3" x="21.6267" y="40.4351" width="230.608" height="73.0978" filterUnits="userSpaceOnUse" color-interpolation-filters="sRGB">
<feFlood flood-opacity="0" result="BackgroundImageFix"/>
<feBlend mode="normal" in="SourceGraphic" in2="BackgroundImageFix" result="shape"/>
<feGaussianBlur stdDeviation="0.194444" result="effect1_foregroundBlur_50_3"/>
</filter>
</defs>
</svg>
