<svg width="275" height="154" fill="none" xmlns="http://www.w3.org/2000/svg"><g style="mix-blend-mode:hard-light" filter="url(#a)"><path d="M66.816 111.48h-3.792v3.792h3.792v-3.792Zm0-22.656h3.792v-3.792h-3.792v3.792Zm-41.344-3.328-2.681 2.681.025.025.026.025 2.63-2.731ZM22.016 42.36v-3.792h-3.792v3.792h3.792Zm1.28 0h3.792v-3.792h-3.792v3.792Zm3.2 42.24-2.626 2.735.03.028.029.027 2.567-2.79Zm40.32 2.944v3.792h3.792v-3.792h-3.792Zm0-45.184v-3.792h-3.792v3.792h3.792Zm1.28 0h3.792v-3.792h-3.792v3.792Zm0 69.12v3.792h3.792v-3.792h-3.792Zm2.512 0V88.824h-7.584v22.656h7.584Zm-3.792-26.448H36.224v7.584h30.592v-7.584Zm-30.592 0c-4.382 0-6.817-1.01-8.122-2.267l-5.26 5.462c3.303 3.18 8.036 4.389 13.382 4.389v-7.584Zm-8.07-2.217c-1.367-1.367-2.346-3.626-2.346-7.431h-7.584c0 5.07 1.325 9.552 4.567 12.793l5.362-5.362Zm-2.346-7.431V42.36h-7.584v33.024h7.584Zm-3.792-29.232h1.28v-7.584h-1.28v7.584Zm-2.512-3.792v33.024h7.584V42.36h-7.584Zm0 33.024c0 4.72 1.238 8.948 4.366 11.951l5.252-5.47c-1.139-1.093-2.034-3.01-2.034-6.481h-7.584ZM23.93 87.39c3.113 2.865 7.457 3.946 12.295 3.946v-7.584c-3.866 0-6.007-.881-7.16-1.942l-5.135 5.58Zm12.295 3.946h30.592v-7.584H36.224v7.584Zm34.384-3.792V42.36h-7.584v45.184h7.584Zm-3.792-41.392h1.28v-7.584h-1.28v7.584Zm-2.512-3.792v69.12h7.584V42.36h-7.584Zm3.792 65.328h-1.28v7.584h1.28v-7.584Zm45.054-56.624-3.568-1.284 3.568 1.284Zm3.968-5.376 2.318 3 .042-.032.041-.033-2.401-2.935Zm7.68-3.584-.942-3.673-.011.003-.012.003.965 3.667Zm32.512 3.584-2.577 2.78.016.016.017.016 2.544-2.812Zm0 62.72 2.54 2.815.004-.003-2.544-2.812Zm-32.512 3.456-.965 3.667.012.003.011.003.942-3.673Zm-7.68-3.456-2.401 2.935.041.033.042.032 2.318-3Zm1.28-61.952-2.456-2.889 2.456 2.889Zm0 61.056-2.456 2.889 2.456-2.889Zm37.76 0-2.42-2.919 2.42 2.919Zm0-60.928-2.462 2.884.021.017.021.018 2.42-2.919Zm-40.368 49.28v-37.76h-7.584v37.76h7.584Zm0-37.76c0-2.178.326-4.084.928-5.756l-7.136-2.568c-.934 2.594-1.376 5.382-1.376 8.324h7.584Zm.928-5.756c.511-1.421 1.384-2.629 2.718-3.66l-4.636-6c-2.421 1.87-4.193 4.247-5.218 7.092l7.136 2.568Zm2.801-3.725c1.328-1.087 3.338-2.087 6.244-2.852l-1.93-7.334c-3.58.942-6.69 2.331-9.116 4.316l4.802 5.87Zm6.221-2.846c2.918-.748 6.716-1.161 11.474-1.161v-7.584c-5.14 0-9.62.44-13.358 1.4l1.884 7.345Zm11.474-1.161c4.767 0 8.595.393 11.556 1.11 2.982.721 4.854 1.715 5.963 2.743l5.154-5.562c-2.389-2.215-5.616-3.653-9.333-4.552-3.738-.905-8.209-1.323-13.34-1.323v7.584Zm17.552 3.884c2.753 2.49 4.128 5.59 4.128 9.604h7.584c0-6.056-2.209-11.233-6.624-15.228l-5.088 5.624Zm4.128 9.604v37.76h7.584v-37.76h-7.584Zm0 37.76c0 4.12-1.39 7.255-4.128 9.732l5.088 5.624c4.43-4.009 6.624-9.236 6.624-15.356h-7.584Zm-4.124 9.729c-1.107.999-2.984 1.971-5.978 2.676-2.97.7-6.806 1.083-11.578 1.083v7.584c5.126 0 9.589-.407 13.318-1.285 3.704-.873 6.926-2.269 9.318-4.428l-5.08-5.63Zm-17.556 3.759c-4.758 0-8.556-.413-11.474-1.161l-1.884 7.346c3.738.958 8.218 1.399 13.358 1.399v-7.584Zm-11.451-1.155c-2.94-.773-4.981-1.749-6.327-2.789l-4.636 6c2.409 1.862 5.487 3.19 9.033 4.123l1.93-7.334Zm-6.244-2.724c-1.385-1.133-2.282-2.411-2.801-3.853l-7.136 2.568c1.017 2.824 2.765 5.216 5.135 7.155l4.802-5.87Zm-2.801-3.853c-.602-1.672-.928-3.578-.928-5.756h-7.584c0 2.942.442 5.729 1.376 8.324l7.136-2.568Zm20.496-63.308c-9.245 0-16.748 1.41-21.272 5.255l4.912 5.778c2.303-1.958 7.344-3.45 16.36-3.45v-7.583Zm-21.272 5.255c-4.34 3.689-6.456 8.669-6.456 14.537h7.584c0-3.86 1.297-6.645 3.784-8.759l-4.912-5.778Zm-6.456 14.537v37.76h7.584v-37.76h-7.584Zm0 37.76c0 5.868 2.116 10.848 6.456 14.537l4.912-5.778c-2.487-2.114-3.784-4.9-3.784-8.759h-7.584Zm6.456 14.537c4.524 3.845 12.027 5.255 21.272 5.255v-7.584c-9.016 0-14.057-1.491-16.36-3.449l-4.912 5.778Zm21.272 5.255c9.261 0 16.772-1.417 21.364-5.225l-4.84-5.838c-2.405 1.994-7.524 3.479-16.524 3.479v7.584Zm21.364-5.225c4.435-3.678 6.62-8.665 6.62-14.567h-7.584c0 3.826-1.314 6.604-3.876 8.729l4.84 5.838Zm6.62-14.567v-37.76h-7.584v37.76h7.584Zm0-37.76c0-5.84-2.202-10.776-6.62-14.439l-4.84 5.838c2.58 2.14 3.876 4.884 3.876 8.601h7.584ZM158.62 43.7c-4.599-3.926-12.131-5.388-21.406-5.388v7.584c8.986 0 14.084 1.524 16.482 3.572l4.924-5.768Zm91.946 67.78h-3.792v3.792h3.792v-3.792Zm0-22.656h3.792v-3.792h-3.792v3.792Zm-41.344-3.328-2.681 2.681.025.025.026.025 2.63-2.731Zm-3.456-43.136v-3.792h-3.792v3.792h3.792Zm1.28 0h3.792v-3.792h-3.792v3.792Zm3.2 42.24-2.626 2.735.029.028.03.027 2.567-2.79Zm40.32 2.944v3.792h3.792v-3.792h-3.792Zm0-45.184v-3.792h-3.792v3.792h3.792Zm1.28 0h3.792v-3.792h-3.792v3.792Zm0 69.12v3.792h3.792v-3.792h-3.792Zm2.512 0V88.824h-7.584v22.656h7.584Zm-3.792-26.448h-30.592v7.584h30.592v-7.584Zm-30.592 0c-4.382 0-6.817-1.01-8.122-2.267l-5.26 5.462c3.303 3.18 8.036 4.389 13.382 4.389v-7.584Zm-8.071-2.217c-1.367-1.367-2.345-3.626-2.345-7.431h-7.584c0 5.07 1.326 9.552 4.567 12.793l5.362-5.362Zm-2.345-7.431V42.36h-7.584v33.024h7.584Zm-3.792-29.232h1.28v-7.584h-1.28v7.584Zm-2.512-3.792v33.024h7.584V42.36h-7.584Zm0 33.024c0 4.72 1.238 8.948 4.366 11.951l5.252-5.47c-1.138-1.093-2.034-3.01-2.034-6.481h-7.584Zm4.425 12.006c3.113 2.865 7.457 3.946 12.295 3.946v-7.584c-3.866 0-6.007-.881-7.161-1.942l-5.134 5.58Zm12.295 3.946h30.592v-7.584h-30.592v7.584Zm34.384-3.792V42.36h-7.584v45.184h7.584Zm-3.792-41.392h1.28v-7.584h-1.28v7.584Zm-2.512-3.792v69.12h7.584V42.36h-7.584Zm3.792 65.328h-1.28v7.584h1.28v-7.584Z" fill="#FFE3B3"/></g><g style="mix-blend-mode:hard-light" filter="url(#b)"><path d="M66.816 111.48h-4.958v4.958h4.958v-4.958Zm0-22.656h4.958v-4.958h-4.958v4.958Zm-41.344-3.328-3.506 3.506.033.033.034.033 3.439-3.572ZM22.016 42.36v-4.958h-4.958v4.958h4.958Zm1.28 0h4.958v-4.958h-4.958v4.958Zm3.2 42.24-3.434 3.577.038.036.039.036 3.357-3.649Zm40.32 2.944v4.958h4.958v-4.958h-4.958Zm0-45.184v-4.958h-4.958v4.958h4.958Zm1.28 0h4.958v-4.958h-4.958v4.958Zm0 69.12v4.958h4.958v-4.958h-4.958Zm3.678 0V88.824h-9.916v22.656h9.916Zm-4.958-27.614H36.224v9.916h30.592v-9.916Zm-30.592 0c-4.234 0-6.315-.98-7.313-1.942l-6.878 7.144c3.61 3.476 8.697 4.714 14.191 4.714v-9.916Zm-7.246-1.876c-1.078-1.078-2.004-2.996-2.004-6.606h-9.916c0 5.264 1.378 10.088 4.908 13.618l7.012-7.012Zm-2.004-6.606V42.36h-9.916v33.024h9.916Zm-4.958-28.066h1.28v-9.916h-1.28v9.916Zm-3.678-4.958v33.024h9.916V42.36h-9.916Zm0 33.024c0 4.913 1.29 9.496 4.724 12.793l6.868-7.154c-.832-.799-1.676-2.36-1.676-5.639h-9.916Zm4.8 12.865c3.416 3.142 8.099 4.253 13.086 4.253v-9.916c-3.717 0-5.52-.851-6.37-1.635l-6.715 7.298Zm13.086 4.253h30.592v-9.916H36.224v9.916Zm35.55-4.958V42.36h-9.916v45.184h9.916Zm-4.958-40.226h1.28v-9.916h-1.28v9.916Zm-3.678-4.958v69.12h9.916V42.36h-9.916Zm4.958 64.162h-1.28v9.916h1.28v-9.916Zm45.054-55.458-4.665-1.68 4.665 1.68Zm3.968-5.376 3.032 3.923.054-.042.054-.044-3.14-3.837Zm7.68-3.584-1.232-4.803-.015.004-.015.004 1.262 4.795Zm32.512 3.584-3.371 3.637.022.02.022.02 3.327-3.677Zm0 62.72 3.322 3.681.005-.004-3.327-3.677Zm-32.512 3.456-1.262 4.795.015.004.015.004 1.232-4.803Zm-7.68-3.456-3.14 3.838.054.043.054.042 3.032-3.923Zm1.28-61.952-3.211-3.778 3.211 3.778Zm0 61.056-3.211 3.778 3.211-3.778Zm37.76 0-3.165-3.817 3.165 3.817Zm0-60.928-3.219 3.771.027.023.027.023 3.165-3.817Zm-39.202 49.28v-37.76h-9.916v37.76h9.916Zm0-37.76c0-2.06.308-3.83.859-5.36l-9.33-3.36c-.985 2.737-1.445 5.66-1.445 8.72h9.916Zm.859-5.36c.433-1.203 1.168-2.231 2.335-3.133l-6.064-7.846c-2.588 2-4.498 4.556-5.601 7.62l9.33 3.358Zm2.443-3.218c1.159-.949 3-1.89 5.802-2.627l-2.524-9.59c-3.683.97-6.962 2.418-9.558 4.541l6.28 7.675Zm5.772-2.619c2.791-.716 6.485-1.125 11.184-1.125v-9.916c-5.199 0-9.783.444-13.648 1.435l2.464 9.606Zm11.184-1.125c4.711 0 8.44.39 11.282 1.077 2.868.694 4.532 1.62 5.443 2.466l6.742-7.274c-2.587-2.397-6.023-3.903-9.853-4.83-3.857-.934-8.427-1.355-13.614-1.355v9.916Zm16.769 3.583c2.497 2.259 3.745 5.04 3.745 8.739h9.916c0-6.37-2.336-11.867-7.007-16.093l-6.654 7.354Zm3.745 8.739v37.76h9.916v-37.76h-9.916Zm0 37.76c0 3.813-1.267 6.626-3.745 8.867l6.654 7.354c4.69-4.244 7.007-9.794 7.007-16.221h-9.916Zm-3.74 8.863c-.909.82-2.578 1.727-5.463 2.407-2.854.672-6.593 1.052-11.311 1.052v9.916c5.181 0 9.74-.41 13.585-1.316 3.814-.899 7.243-2.36 9.833-4.697l-6.644-7.362Zm-16.774 3.459c-4.699 0-8.393-.409-11.184-1.125l-2.464 9.606c3.865.991 8.449 1.435 13.648 1.435v-9.916Zm-11.154-1.117c-2.846-.749-4.728-1.671-5.91-2.584l-6.064 7.846c2.573 1.988 5.811 3.37 9.45 4.328l2.524-9.59Zm-5.802-2.499c-1.234-1.009-2-2.115-2.443-3.345l-9.33 3.358c1.093 3.037 2.972 5.6 5.493 7.663l6.28-7.676Zm-2.443-3.345c-.551-1.53-.859-3.3-.859-5.361h-9.916c0 3.06.46 5.983 1.445 8.719l9.33-3.358Zm19.399-64.08c-9.28 0-17.162 1.398-22.027 5.533l6.422 7.556c1.962-1.668 6.624-3.172 15.605-3.172v-9.916Zm-22.027 5.533c-4.625 3.931-6.867 9.249-6.867 15.426h9.916c0-3.55 1.172-5.999 3.373-7.87l-6.422-7.556Zm-6.867 15.426v37.76h9.916v-37.76h-9.916Zm0 37.76c0 6.177 2.242 11.495 6.867 15.426l6.422-7.556c-2.201-1.871-3.373-4.32-3.373-7.87h-9.916Zm6.867 15.426c4.865 4.135 12.747 5.532 22.027 5.532v-9.916c-8.981 0-13.643-1.504-15.605-3.172l-6.422 7.556Zm22.027 5.532c9.302 0 17.18-1.405 22.109-5.493l-6.33-7.634c-2.068 1.715-6.819 3.211-15.779 3.211v9.916Zm22.109-5.493c4.723-3.917 7.041-9.244 7.041-15.465h-9.916c0 3.507-1.18 5.945-3.455 7.831l6.33 7.634Zm7.041-15.465v-37.76h-9.916v37.76h9.916Zm0-37.76c0-6.167-2.341-11.44-7.041-15.337l-6.33 7.634c2.297 1.905 3.455 4.313 3.455 7.703h9.916Zm-6.987-15.291c-4.937-4.215-12.843-5.667-22.163-5.667v9.916c8.942 0 13.665 1.535 15.725 3.293l6.438-7.542Zm91.189 68.667h-4.958v4.958h4.958v-4.958Zm0-22.656h4.958v-4.958h-4.958v4.958Zm-41.344-3.328-3.506 3.506.033.033.034.033 3.439-3.572Zm-3.456-43.136v-4.958h-4.958v4.958h4.958Zm1.28 0h4.958v-4.958h-4.958v4.958Zm3.2 42.24-3.434 3.577.038.036.039.036 3.357-3.649Zm40.32 2.944v4.958h4.958v-4.958h-4.958Zm0-45.184v-4.958h-4.958v4.958h4.958Zm1.28 0h4.958v-4.958h-4.958v4.958Zm0 69.12v4.958h4.958v-4.958h-4.958Zm3.678 0V88.824h-9.916v22.656h9.916Zm-4.958-27.614h-30.592v9.916h30.592v-9.916Zm-30.592 0c-4.234 0-6.315-.98-7.313-1.942l-6.878 7.144c3.61 3.476 8.697 4.714 14.191 4.714v-9.916Zm-7.246-1.876c-1.078-1.078-2.004-2.996-2.004-6.606h-9.916c0 5.264 1.378 10.088 4.908 13.618l7.012-7.012Zm-2.004-6.606V42.36h-9.916v33.024h9.916Zm-4.958-28.066h1.28v-9.916h-1.28v9.916Zm-3.678-4.958v33.024h9.916V42.36h-9.916Zm0 33.024c0 4.913 1.29 9.496 4.724 12.793l6.868-7.154c-.832-.799-1.676-2.36-1.676-5.639h-9.916Zm4.801 12.865c3.415 3.142 8.098 4.253 13.085 4.253v-9.916c-3.717 0-5.519-.851-6.371-1.635l-6.714 7.298Zm13.085 4.253h30.592v-9.916h-30.592v9.916Zm35.55-4.958V42.36h-9.916v45.184h9.916Zm-4.958-40.226h1.28v-9.916h-1.28v9.916Zm-3.678-4.958v69.12h9.916V42.36h-9.916Zm4.958 64.162h-1.28v9.916h1.28v-9.916Z" fill="#FFE3B3"/></g><g style="mix-blend-mode:hard-light" filter="url(#c)"><path d="M66.816 111.48h-3.792v3.792h3.792v-3.792Zm0-22.656h3.792v-3.792h-3.792v3.792Zm-41.344-3.328-2.681 2.681.025.025.026.025 2.63-2.731ZM22.016 42.36v-3.792h-3.792v3.792h3.792Zm1.28 0h3.792v-3.792h-3.792v3.792Zm3.2 42.24-2.626 2.735.03.028.029.027 2.567-2.79Zm40.32 2.944v3.792h3.792v-3.792h-3.792Zm0-45.184v-3.792h-3.792v3.792h3.792Zm1.28 0h3.792v-3.792h-3.792v3.792Zm0 69.12v3.792h3.792v-3.792h-3.792Zm2.512 0V88.824h-7.584v22.656h7.584Zm-3.792-26.448H36.224v7.584h30.592v-7.584Zm-30.592 0c-4.382 0-6.817-1.01-8.122-2.267l-5.26 5.462c3.303 3.18 8.036 4.389 13.382 4.389v-7.584Zm-8.07-2.217c-1.367-1.367-2.346-3.626-2.346-7.431h-7.584c0 5.07 1.325 9.552 4.567 12.793l5.362-5.362Zm-2.346-7.431V42.36h-7.584v33.024h7.584Zm-3.792-29.232h1.28v-7.584h-1.28v7.584Zm-2.512-3.792v33.024h7.584V42.36h-7.584Zm0 33.024c0 4.72 1.238 8.948 4.366 11.951l5.252-5.47c-1.139-1.093-2.034-3.01-2.034-6.481h-7.584ZM23.93 87.39c3.113 2.865 7.457 3.946 12.295 3.946v-7.584c-3.866 0-6.007-.881-7.16-1.942l-5.135 5.58Zm12.295 3.946h30.592v-7.584H36.224v7.584Zm34.384-3.792V42.36h-7.584v45.184h7.584Zm-3.792-41.392h1.28v-7.584h-1.28v7.584Zm-2.512-3.792v69.12h7.584V42.36h-7.584Zm3.792 65.328h-1.28v7.584h1.28v-7.584Zm45.054-56.624-3.568-1.284 3.568 1.284Zm3.968-5.376 2.318 3 .042-.032.041-.033-2.401-2.935Zm7.68-3.584-.942-3.673-.011.003-.012.003.965 3.667Zm32.512 3.584-2.577 2.78.016.016.017.016 2.544-2.812Zm0 62.72 2.54 2.815.004-.003-2.544-2.812Zm-32.512 3.456-.965 3.667.012.003.011.003.942-3.673Zm-7.68-3.456-2.401 2.935.041.033.042.032 2.318-3Zm1.28-61.952-2.456-2.889 2.456 2.889Zm0 61.056-2.456 2.889 2.456-2.889Zm37.76 0-2.42-2.919 2.42 2.919Zm0-60.928-2.462 2.884.021.017.021.018 2.42-2.919Zm-40.368 49.28v-37.76h-7.584v37.76h7.584Zm0-37.76c0-2.178.326-4.084.928-5.756l-7.136-2.568c-.934 2.594-1.376 5.382-1.376 8.324h7.584Zm.928-5.756c.511-1.421 1.384-2.629 2.718-3.66l-4.636-6c-2.421 1.87-4.193 4.247-5.218 7.092l7.136 2.568Zm2.801-3.725c1.328-1.087 3.338-2.087 6.244-2.852l-1.93-7.334c-3.58.942-6.69 2.331-9.116 4.316l4.802 5.87Zm6.221-2.846c2.918-.748 6.716-1.161 11.474-1.161v-7.584c-5.14 0-9.62.44-13.358 1.4l1.884 7.345Zm11.474-1.161c4.767 0 8.595.393 11.556 1.11 2.982.721 4.854 1.715 5.963 2.743l5.154-5.562c-2.389-2.215-5.616-3.653-9.333-4.552-3.738-.905-8.209-1.323-13.34-1.323v7.584Zm17.552 3.884c2.753 2.49 4.128 5.59 4.128 9.604h7.584c0-6.056-2.209-11.233-6.624-15.228l-5.088 5.624Zm4.128 9.604v37.76h7.584v-37.76h-7.584Zm0 37.76c0 4.12-1.39 7.255-4.128 9.732l5.088 5.624c4.43-4.009 6.624-9.236 6.624-15.356h-7.584Zm-4.124 9.729c-1.107.999-2.984 1.971-5.978 2.676-2.97.7-6.806 1.083-11.578 1.083v7.584c5.126 0 9.589-.407 13.318-1.285 3.704-.873 6.926-2.269 9.318-4.428l-5.08-5.63Zm-17.556 3.759c-4.758 0-8.556-.413-11.474-1.161l-1.884 7.346c3.738.958 8.218 1.399 13.358 1.399v-7.584Zm-11.451-1.155c-2.94-.773-4.981-1.749-6.327-2.789l-4.636 6c2.409 1.862 5.487 3.19 9.033 4.123l1.93-7.334Zm-6.244-2.724c-1.385-1.133-2.282-2.411-2.801-3.853l-7.136 2.568c1.017 2.824 2.765 5.216 5.135 7.155l4.802-5.87Zm-2.801-3.853c-.602-1.672-.928-3.578-.928-5.756h-7.584c0 2.942.442 5.729 1.376 8.324l7.136-2.568Zm20.496-63.308c-9.245 0-16.748 1.41-21.272 5.255l4.912 5.778c2.303-1.958 7.344-3.45 16.36-3.45v-7.583Zm-21.272 5.255c-4.34 3.689-6.456 8.669-6.456 14.537h7.584c0-3.86 1.297-6.645 3.784-8.759l-4.912-5.778Zm-6.456 14.537v37.76h7.584v-37.76h-7.584Zm0 37.76c0 5.868 2.116 10.848 6.456 14.537l4.912-5.778c-2.487-2.114-3.784-4.9-3.784-8.759h-7.584Zm6.456 14.537c4.524 3.845 12.027 5.255 21.272 5.255v-7.584c-9.016 0-14.057-1.491-16.36-3.449l-4.912 5.778Zm21.272 5.255c9.261 0 16.772-1.417 21.364-5.225l-4.84-5.838c-2.405 1.994-7.524 3.479-16.524 3.479v7.584Zm21.364-5.225c4.435-3.678 6.62-8.665 6.62-14.567h-7.584c0 3.826-1.314 6.604-3.876 8.729l4.84 5.838Zm6.62-14.567v-37.76h-7.584v37.76h7.584Zm0-37.76c0-5.84-2.202-10.776-6.62-14.439l-4.84 5.838c2.58 2.14 3.876 4.884 3.876 8.601h7.584ZM158.62 43.7c-4.599-3.926-12.131-5.388-21.406-5.388v7.584c8.986 0 14.084 1.524 16.482 3.572l4.924-5.768Zm91.946 67.78h-3.792v3.792h3.792v-3.792Zm0-22.656h3.792v-3.792h-3.792v3.792Zm-41.344-3.328-2.681 2.681.025.025.026.025 2.63-2.731Zm-3.456-43.136v-3.792h-3.792v3.792h3.792Zm1.28 0h3.792v-3.792h-3.792v3.792Zm3.2 42.24-2.626 2.735.029.028.03.027 2.567-2.79Zm40.32 2.944v3.792h3.792v-3.792h-3.792Zm0-45.184v-3.792h-3.792v3.792h3.792Zm1.28 0h3.792v-3.792h-3.792v3.792Zm0 69.12v3.792h3.792v-3.792h-3.792Zm2.512 0V88.824h-7.584v22.656h7.584Zm-3.792-26.448h-30.592v7.584h30.592v-7.584Zm-30.592 0c-4.382 0-6.817-1.01-8.122-2.267l-5.26 5.462c3.303 3.18 8.036 4.389 13.382 4.389v-7.584Zm-8.071-2.217c-1.367-1.367-2.345-3.626-2.345-7.431h-7.584c0 5.07 1.326 9.552 4.567 12.793l5.362-5.362Zm-2.345-7.431V42.36h-7.584v33.024h7.584Zm-3.792-29.232h1.28v-7.584h-1.28v7.584Zm-2.512-3.792v33.024h7.584V42.36h-7.584Zm0 33.024c0 4.72 1.238 8.948 4.366 11.951l5.252-5.47c-1.138-1.093-2.034-3.01-2.034-6.481h-7.584Zm4.425 12.006c3.113 2.865 7.457 3.946 12.295 3.946v-7.584c-3.866 0-6.007-.881-7.161-1.942l-5.134 5.58Zm12.295 3.946h30.592v-7.584h-30.592v7.584Zm34.384-3.792V42.36h-7.584v45.184h7.584Zm-3.792-41.392h1.28v-7.584h-1.28v7.584Zm-2.512-3.792v69.12h7.584V42.36h-7.584Zm3.792 65.328h-1.28v7.584h1.28v-7.584Z" fill="#FFE3B3"/></g><g filter="url(#d)"><path d="M66.816 111.48h-2.333v2.333h2.333v-2.333Zm0-22.656h2.333v-2.333h-2.333v2.333Zm-41.344-3.328-1.65 1.65.016.016.015.015 1.619-1.681ZM22.016 42.36v-2.333h-2.333v2.333h2.333Zm1.28 0h2.333v-2.333h-2.333v2.333Zm3.2 42.24-1.616 1.683.018.017.018.017 1.58-1.717Zm40.32 2.944v2.333h2.333v-2.333h-2.333Zm0-45.184v-2.333h-2.333v2.333h2.333Zm1.28 0h2.333v-2.333h-2.333v2.333Zm0 69.12v2.333h2.333v-2.333h-2.333Zm1.053 0V88.824h-4.666v22.656h4.666Zm-2.333-24.99H36.224v4.667h30.592v-4.666Zm-30.592 0c-4.567 0-7.444-1.048-9.133-2.675l-3.238 3.362c2.92 2.81 7.21 3.98 12.371 3.98v-4.666Zm-9.102-2.644c-1.727-1.727-2.773-4.414-2.773-8.462h-4.666c0 4.827 1.258 8.881 4.14 11.762l3.299-3.3Zm-2.773-8.462V42.36h-4.666v33.024h4.666Zm-2.333-30.69h1.28v-4.667h-1.28v4.666Zm-1.053-2.334v33.024h4.666V42.36h-4.666Zm0 33.024c0 4.48 1.171 8.263 3.917 10.9l3.232-3.367c-1.521-1.46-2.483-3.822-2.483-7.533h-4.666Zm3.953 10.933c2.737 2.518 6.657 3.56 11.308 3.56v-4.666c-4.053 0-6.618-.92-8.148-2.328l-3.16 3.434Zm11.308 3.56h30.592v-4.666H36.224v4.666Zm32.925-2.333V42.36h-4.666v45.184h4.666Zm-2.333-42.85h1.28v-4.667h-1.28v4.666Zm-1.053-2.334v69.12h4.666V42.36h-4.666Zm2.333 66.787h-1.28v4.666h1.28v-4.666Zm45.054-58.083-2.195-.79 2.195.79Zm3.968-5.376 1.427 1.846.025-.02.026-.02-1.478-1.806Zm7.68-3.584-.58-2.26-.007.002-.007.002.594 2.256Zm32.512 3.584-1.586 1.711.01.01.011.01 1.565-1.731Zm0 62.72 1.563 1.732.002-.002-1.565-1.73Zm-32.512 3.456-.594 2.257.007.001.007.002.58-2.26Zm-7.68-3.456-1.478 1.806.026.02.025.02 1.427-1.846Zm1.28-61.952-1.511-1.778 1.511 1.778Zm0 61.056-1.511 1.778 1.511-1.778Zm37.76 0-1.489-1.796 1.489 1.796Zm0-60.928-1.515 1.775.013.01.013.011 1.489-1.796Zm-41.827 49.28v-37.76h-4.666v37.76h4.666Zm0-37.76c0-2.325.349-4.4 1.014-6.25l-4.39-1.58c-.871 2.417-1.29 5.035-1.29 7.83h4.666Zm1.014-6.25c.611-1.695 1.657-3.127 3.2-4.32l-2.854-3.692c-2.211 1.709-3.811 3.86-4.736 6.432l4.39 1.58Zm3.251-4.36c1.539-1.26 3.761-2.335 6.796-3.133l-1.188-4.514c-3.45.908-6.348 2.223-8.564 4.035l2.956 3.612Zm6.782-3.13c3.075-.788 7.004-1.207 11.836-1.207v-4.666c-5.067 0-9.415.435-12.996 1.353l1.16 4.52Zm11.836-1.207c4.837 0 8.789.398 11.899 1.15 3.123.757 5.256 1.836 6.611 3.092l3.172-3.422c-2.143-1.987-5.11-3.34-8.685-4.205-3.588-.868-7.936-1.281-12.997-1.281v4.666Zm18.531 4.261c3.072 2.78 4.608 6.28 4.608 10.686h4.666c0-5.663-2.048-10.44-6.144-14.146l-3.13 3.46Zm4.608 10.686v37.76h4.666v-37.76h-4.666Zm0 37.76c0 4.505-1.545 8.042-4.608 10.814l3.13 3.46c4.105-3.714 6.144-8.539 6.144-14.274h-4.666Zm-4.606 10.812c-1.354 1.221-3.489 2.275-6.62 3.013-3.116.734-7.073 1.122-11.913 1.122v4.666c5.058 0 9.401-.402 12.983-1.246 3.568-.841 6.531-2.155 8.676-4.091l-3.126-3.464Zm-18.533 4.135c-4.832 0-8.761-.419-11.836-1.207l-1.16 4.52c3.581.918 7.929 1.353 12.996 1.353v-4.666Zm-11.822-1.204c-3.056-.804-5.297-1.847-6.847-3.045l-2.854 3.692c2.205 1.704 5.084 2.964 8.513 3.867l1.188-4.514Zm-6.796-3.005c-1.575-1.288-2.636-2.78-3.251-4.488l-4.39 1.58c.921 2.559 2.505 4.736 4.685 6.52l2.956-3.612Zm-3.251-4.488c-.665-1.85-1.014-3.925-1.014-6.25h-4.666c0 2.795.419 5.413 1.29 7.83l4.39-1.58Zm21.869-62.343c-9.201 0-16.231 1.425-20.327 4.907l3.022 3.556c2.73-2.32 8.245-3.797 17.305-3.797v-4.666Zm-20.327 4.907c-3.984 3.386-5.942 7.944-5.942 13.426h4.666c0-4.246 1.455-7.453 4.298-9.87l-3.022-3.556Zm-5.942 13.426v37.76h4.666v-37.76h-4.666Zm0 37.76c0 5.482 1.958 10.04 5.942 13.426l3.022-3.556c-2.843-2.417-4.298-5.624-4.298-9.87h-4.666Zm5.942 13.426c4.096 3.482 11.126 4.907 20.327 4.907v-4.666c-9.06 0-14.575-1.476-17.305-3.797l-3.022 3.556Zm20.327 4.907c9.211 0 16.261-1.429 20.433-4.889l-2.978-3.592c-2.826 2.343-8.405 3.815-17.455 3.815v4.666Zm20.433-4.889c4.075-3.379 6.092-7.941 6.092-13.444h-4.666c0 4.225-1.482 7.428-4.404 9.852l2.978 3.592Zm6.092-13.444v-37.76h-4.666v37.76h4.666Zm0-37.76c0-5.432-2.028-9.946-6.092-13.316l-2.978 3.592c2.933 2.433 4.404 5.599 4.404 9.724h4.666Zm-6.066-13.295c-4.176-3.564-11.239-5.038-20.459-5.038v4.666c9.042 0 14.607 1.513 17.429 3.922l3.03-3.55Zm92.893 66.671h-2.333v2.333h2.333v-2.333Zm0-22.656h2.333v-2.333h-2.333v2.333Zm-41.344-3.328-1.65 1.65.016.016.016.015 1.618-1.681Zm-3.456-43.136v-2.333h-2.333v2.333h2.333Zm1.28 0h2.333v-2.333h-2.333v2.333Zm3.2 42.24-1.616 1.683.018.017.018.017 1.58-1.717Zm40.32 2.944v2.333h2.333v-2.333h-2.333Zm0-45.184v-2.333h-2.333v2.333h2.333Zm1.28 0h2.333v-2.333h-2.333v2.333Zm0 69.12v2.333h2.333v-2.333h-2.333Zm1.053 0V88.824h-4.666v22.656h4.666Zm-2.333-24.99h-30.592v4.667h30.592v-4.666Zm-30.592 0c-4.568 0-7.444-1.048-9.134-2.675l-3.236 3.362c2.918 2.81 7.21 3.98 12.37 3.98v-4.666Zm-9.102-2.644c-1.727-1.727-2.773-4.414-2.773-8.462h-4.666c0 4.827 1.258 8.881 4.139 11.762l3.3-3.3Zm-2.773-8.462V42.36h-4.666v33.024h4.666Zm-2.333-30.69h1.28v-4.667h-1.28v4.666Zm-1.053-2.334v33.024h4.666V42.36h-4.666Zm0 33.024c0 4.48 1.171 8.263 3.917 10.9l3.232-3.367c-1.521-1.46-2.483-3.822-2.483-7.533h-4.666Zm3.953 10.933c2.737 2.518 6.657 3.56 11.308 3.56v-4.666c-4.053 0-6.618-.92-8.148-2.328l-3.16 3.434Zm11.308 3.56h30.592v-4.666h-30.592v4.666Zm32.925-2.333V42.36h-4.666v45.184h4.666Zm-2.333-42.85h1.28v-4.667h-1.28v4.666Zm-1.053-2.334v69.12h4.666V42.36h-4.666Zm2.333 66.787h-1.28v4.666h1.28v-4.666Z" fill="#FFE3B3"/></g><g filter="url(#e)"><path d="M66.816 111.48h-1.167v1.167h1.167v-1.167Zm0-22.656h1.167v-1.167h-1.167v1.167Zm-41.344-3.328-.825.825.008.008.008.007.809-.84ZM22.016 42.36v-1.167h-1.167v1.167h1.167Zm1.28 0h1.167v-1.167h-1.167v1.167Zm3.2 42.24-.808.842.009.008.01.009.789-.859Zm40.32 2.944v1.167h1.167v-1.167h-1.167Zm0-45.184v-1.167h-1.167v1.167h1.167Zm1.28 0h1.167v-1.167h-1.167v1.167Zm0 69.12v1.167h1.167v-1.167h-1.167Zm-.113 0V88.824h-2.334v22.656h2.334Zm-1.167-23.823H36.224v2.334h30.592v-2.334Zm-30.592 0c-4.716 0-7.946-1.079-9.943-3.001l-1.618 1.68c2.611 2.515 6.549 3.655 11.561 3.655v-2.334Zm-9.927-2.986c-2.016-2.016-3.114-5.044-3.114-9.287h-2.334c0 4.632 1.206 8.344 3.798 10.937l1.65-1.65Zm-3.114-9.287V42.36h-2.334v33.024h2.334Zm-1.167-31.857h1.28v-2.334h-1.28v2.334Zm.113-1.167v33.024h2.334V42.36h-2.334Zm0 33.024c0 4.288 1.12 7.716 3.559 10.058l1.616-1.684c-1.827-1.754-2.841-4.47-2.841-8.374h-2.334Zm3.577 10.075c2.435 2.24 6.017 3.252 10.518 3.252v-2.334c-4.202 0-7.106-.95-8.938-2.636l-1.58 1.718Zm10.518 3.252h30.592v-2.334H36.224v2.334Zm31.759-1.167V42.36h-2.334v45.184h2.334Zm-1.167-44.017h1.28v-2.334h-1.28v2.334Zm.113-1.167v69.12h2.334V42.36h-2.334Zm1.167 67.953h-1.28v2.334h1.28v-2.334Zm45.054-59.249-1.098-.395 1.098.395Zm3.968-5.376.713.923.013-.01.013-.01-.739-.903Zm7.68-3.584-.29-1.13-.007.002.297 1.128Zm32.512 3.584-.793.856.01.01.783-.866Zm0 62.72.782.866.001-.001-.783-.865Zm-32.512 3.456-.297 1.128.007.002.29-1.13Zm-7.68-3.456-.739.903.013.01.013.01.713-.923Zm1.28-61.952-.756-.889.756.889Zm0 61.056-.756.889.756-.889Zm37.76 0-.745-.898.745.898Zm0-60.928-.757.887.006.006.006.005.745-.898Zm-42.993 49.28v-37.76h-2.334v37.76h2.334Zm0-37.76c0-2.443.366-4.654 1.083-6.645l-2.196-.79c-.819 2.275-1.221 4.758-1.221 7.435h2.334Zm1.083-6.645c.689-1.914 1.873-3.526 3.583-4.848l-1.426-1.846c-2.045 1.58-3.506 3.551-4.353 5.904l2.196.79Zm3.609-4.868c1.708-1.398 4.099-2.533 7.238-3.359l-.594-2.256c-3.346.88-6.075 2.135-8.122 3.809l1.478 1.806Zm7.231-3.357c3.202-.82 7.235-1.243 12.126-1.243v-2.334c-5.008 0-9.252.431-12.706 1.317l.58 2.26Zm12.126-1.243c4.893 0 8.944.401 12.174 1.183 3.236.783 5.577 1.93 7.129 3.37l1.586-1.712c-1.946-1.804-4.704-3.088-8.167-3.926-3.468-.84-7.717-1.249-12.722-1.249v2.334Zm19.313 4.562c3.328 3.011 4.992 6.83 4.992 11.551h2.334c0-5.349-1.92-9.807-5.76-13.281l-1.566 1.73Zm4.992 11.551v37.76h2.334v-37.76h-2.334Zm0 37.76c0 4.812-1.668 8.672-4.992 11.679l1.566 1.73c3.844-3.478 5.76-7.981 5.76-13.409h-2.334Zm-4.991 11.678c-1.551 1.4-3.894 2.519-7.134 3.282-3.232.762-7.285 1.153-12.18 1.153v2.334c5.004 0 9.25-.399 12.716-1.215 3.458-.816 6.215-2.065 8.162-3.822l-1.564-1.732Zm-19.314 4.435c-4.891 0-8.924-.422-12.126-1.243l-.58 2.26c3.454.886 7.698 1.317 12.706 1.317v-2.334Zm-12.119-1.241c-3.15-.829-5.55-1.927-7.264-3.251l-1.426 1.846c2.041 1.577 4.76 2.783 8.096 3.661l.594-2.256Zm-7.238-3.231c-1.726-1.412-2.918-3.075-3.609-4.996l-2.196.79c.845 2.346 2.298 4.352 4.327 6.012l1.478-1.806Zm-3.609-4.996c-.717-1.992-1.083-4.203-1.083-6.645h-2.334c0 2.677.402 5.16 1.221 7.435l2.196-.79Zm22.966-61.572c-9.166 0-15.817 1.438-19.572 4.63l1.512 1.778c3.071-2.611 8.964-4.074 18.06-4.074v-2.334Zm-19.572 4.63c-3.698 3.144-5.531 7.364-5.531 12.537h2.334c0-4.555 1.58-8.1 4.709-10.76l-1.512-1.777Zm-5.531 12.537v37.76h2.334v-37.76h-2.334Zm0 37.76c0 5.173 1.833 9.393 5.531 12.537l1.512-1.778c-3.129-2.659-4.709-6.204-4.709-10.759h-2.334Zm5.531 12.537c3.755 3.192 10.406 4.63 19.572 4.63v-2.334c-9.096 0-14.989-1.463-18.06-4.074l-1.512 1.778Zm19.572 4.63c9.171 0 15.853-1.44 19.689-4.621l-1.49-1.796c-3.162 2.622-9.109 4.083-18.199 4.083v2.334Zm19.689-4.621c3.786-3.14 5.67-7.363 5.67-12.546h-2.334c0 4.545-1.615 8.087-4.826 10.75l1.49 1.796Zm5.67-12.546v-37.76h-2.334v37.76h2.334Zm0-37.76c0-5.105-1.889-9.282-5.67-12.418l-1.49 1.796c3.216 2.667 4.826 6.17 4.826 10.622h2.334Zm-5.658-12.407c-3.837-3.276-10.526-4.76-19.701-4.76v2.334c9.086 0 15.026 1.503 18.187 4.2l1.514-1.774Zm93.651 65.783h-1.167v1.167h1.167v-1.167Zm0-22.656h1.167v-1.167h-1.167v1.167Zm-41.344-3.328-.825.825.008.008.008.007.809-.84Zm-3.456-43.136v-1.167h-1.167v1.167h1.167Zm1.28 0h1.167v-1.167h-1.167v1.167Zm3.2 42.24-.808.842.009.008.009.009.79-.859Zm40.32 2.944v1.167h1.167v-1.167h-1.167Zm0-45.184v-1.167h-1.167v1.167h1.167Zm1.28 0h1.167v-1.167h-1.167v1.167Zm0 69.12v1.167h1.167v-1.167h-1.167Zm-.113 0V88.824h-2.334v22.656h2.334Zm-1.167-23.823h-30.592v2.334h30.592v-2.334Zm-30.592 0c-4.716 0-7.946-1.079-9.943-3.001l-1.618 1.68c2.611 2.515 6.549 3.655 11.561 3.655v-2.334Zm-9.927-2.986c-2.016-2.016-3.114-5.044-3.114-9.287h-2.334c0 4.632 1.206 8.344 3.798 10.937l1.65-1.65Zm-3.114-9.287V42.36h-2.334v33.024h2.334Zm-1.167-31.857h1.28v-2.334h-1.28v2.334Zm.113-1.167v33.024h2.334V42.36h-2.334Zm0 33.024c0 4.288 1.12 7.716 3.559 10.058l1.616-1.684c-1.827-1.754-2.841-4.47-2.841-8.374h-2.334Zm3.577 10.075c2.435 2.24 6.017 3.252 10.518 3.252v-2.334c-4.203 0-7.106-.95-8.938-2.636l-1.58 1.718Zm10.518 3.252h30.592v-2.334h-30.592v2.334Zm31.759-1.167V42.36h-2.334v45.184h2.334Zm-1.167-44.017h1.28v-2.334h-1.28v2.334Zm.113-1.167v69.12h2.334V42.36h-2.334Zm1.167 67.953h-1.28v2.334h1.28v-2.334Z" fill="#fff"/></g><defs><filter id="a" x="13.178" y="31.986" width="247.505" height="89.995" filterUnits="userSpaceOnUse" color-interpolation-filters="sRGB"><feFlood flood-opacity="0" result="BackgroundImageFix"/><feBlend in="SourceGraphic" in2="BackgroundImageFix" result="shape"/><feGaussianBlur stdDeviation="4.419" result="effect1_foregroundBlur_50_3"/></filter><filter id="b" x="19.07" y="37.878" width="235.722" height="78.212" filterUnits="userSpaceOnUse" color-interpolation-filters="sRGB"><feFlood flood-opacity="0" result="BackgroundImageFix"/><feBlend in="SourceGraphic" in2="BackgroundImageFix" result="shape"/><feGaussianBlur stdDeviation="1.473" result="effect1_foregroundBlur_50_3"/></filter><filter id="c" x="18.186" y="39.94" width="237.489" height="79.979" filterUnits="userSpaceOnUse" color-interpolation-filters="sRGB"><feFlood flood-opacity="0" result="BackgroundImageFix"/><feColorMatrix in="SourceAlpha" values="0 0 0 0 0 0 0 0 0 0 0 0 0 0 0 0 0 0 127 0" result="hardAlpha"/><feOffset dy="3.792"/><feGaussianBlur stdDeviation="1.458"/><feColorMatrix values="0 0 0 0 0.3 0 0 0 0 0 0 0 0 0 0.26 0 0 0 0.7 0"/><feBlend mode="multiply" in2="BackgroundImageFix" result="effect1_dropShadow_50_3"/><feColorMatrix in="SourceAlpha" values="0 0 0 0 0 0 0 0 0 0 0 0 0 0 0 0 0 0 127 0" result="hardAlpha"/><feOffset dy="2.946"/><feGaussianBlur stdDeviation="1.915"/><feColorMatrix values="0 0 0 0 0.6 0 0 0 0 0 0 0 0 0 0.6 0 0 0 1 0"/><feBlend mode="color-dodge" in2="effect1_dropShadow_50_3" result="effect2_dropShadow_50_3"/><feBlend in="SourceGraphic" in2="effect2_dropShadow_50_3" result="shape"/><feColorMatrix in="SourceAlpha" values="0 0 0 0 0 0 0 0 0 0 0 0 0 0 0 0 0 0 127 0" result="hardAlpha"/><feOffset dx="-.379" dy=".758"/><feGaussianBlur stdDeviation=".19"/><feComposite in2="hardAlpha" operator="arithmetic" k2="-1" k3="1"/><feColorMatrix values="0 0 0 0 1 0 0 0 0 1 0 0 0 0 1 0 0 0 0.5 0"/><feBlend in2="shape" result="effect3_innerShadow_50_3"/></filter><filter id="d" x="21.432" y="40.241" width="230.997" height="73.487" filterUnits="userSpaceOnUse" color-interpolation-filters="sRGB"><feFlood flood-opacity="0" result="BackgroundImageFix"/><feBlend in="SourceGraphic" in2="BackgroundImageFix" result="shape"/><feGaussianBlur stdDeviation=".292" result="effect1_foregroundBlur_50_3"/></filter><filter id="e" x="21.627" y="40.435" width="230.608" height="73.098" filterUnits="userSpaceOnUse" color-interpolation-filters="sRGB"><feFlood flood-opacity="0" result="BackgroundImageFix"/><feBlend in="SourceGraphic" in2="BackgroundImageFix" result="shape"/><feGaussianBlur stdDeviation=".194" result="effect1_foregroundBlur_50_3"/></filter></defs></svg>