<svg width="55" height="55" fill="none" xmlns="http://www.w3.org/2000/svg"><path d="m15.317 23.227 10.518-10.495a2.783 2.783 0 0 1 3.939 0L15.317 23.227Zm0 0a2.783 2.783 0 0 0 0 3.94 2.782 2.782 0 0 0 3.938 0l8.56-8.517 8.54 8.539a2.785 2.785 0 1 0 3.938-3.938L29.773 12.732 15.317 23.227Zm.707 18.334a1.783 1.783 0 0 1 0-2.524l10.518-10.496a1.783 1.783 0 0 1 2.524 0l10.52 10.519a1.785 1.785 0 1 1-2.525 2.524l-8.891-8.892-.353-.352-.354.351-8.914 8.87h-.001a1.782 1.782 0 0 1-2.524 0Zm-.707-3.232a2.783 2.783 0 0 0 0 3.94 2.782 2.782 0 0 0 3.938 0l8.56-8.517 8.54 8.539a2.784 2.784 0 1 0 3.938-3.938L29.773 27.834a2.781 2.781 0 0 0-3.939 0L15.317 38.33Zm.707-11.87a1.783 1.783 0 0 1 0-2.524L26.541 13.44a1.782 1.782 0 0 1 2.524 0l10.52 10.519a1.785 1.785 0 0 1-2.525 2.524L28.17 17.59l-.353-.352-.354.351-8.914 8.869h-.001a1.782 1.782 0 0 1-2.524 0ZM.5.5h54v54H.5V.5Z" fill="#FB37FF" stroke="#FB37FF"/></svg>