<svg width="37" height="45" fill="none" xmlns="http://www.w3.org/2000/svg"><g style="mix-blend-mode:hard-light" filter="url(#a)"><path d="M10.201 34.4H4.419v5.782H10.2V34.4Zm0-21.6V7.018H4.419V12.8H10.2Zm10.8.36-1.892 5.464.095.033.096.03 1.701-5.527Zm1.6.92-4.227 3.945.068.073.07.07 4.089-4.088Zm.76 1.32-5.592 1.472 5.592-1.472Zm-.24 6.4-5.293-2.329-.04.09-.036.091 5.369 2.148Zm-2.12 1.44-1.433-5.602L21 29.022V23.24Zm2.68.36-1.892 5.464.095.033.096.03 1.701-5.527Zm1.6.96-4.352 3.808.062.07.063.067 4.227-3.945Zm.72 1.44-5.68 1.082.024.13.03.127L26.002 26Zm0 6.04 5.571 1.548.01-.038.01-.038-5.591-1.472Zm-.76 1.24-3.935-4.237-.078.073-.076.075 4.089 4.089Zm-1.56.84 1.503 5.584.1-.027.098-.03-1.701-5.527ZM10.601 13.2V7.418H4.819V13.2H10.6Zm0 10.04H4.819v5.782H10.6V23.24Zm10.32-.28 1.619 5.551.105-.03.105-.035-1.829-5.486Zm1.44-.8-4.089-4.089 4.089 4.089Zm.64-1.16-5.629-1.324-.03.128-.024.13L23 21Zm-.76-6.68 4.468-3.67-4.468 3.67Zm-11.64 9.32v-5.782H4.819v5.782H10.6Zm0 10.36H4.819v5.782H10.6V34Zm14.28-.96 4.175 4 .04-.042.04-.043-4.255-3.915Zm0-8.2-4.663 3.42.037.05.037.048 4.589-3.518Zm-3.92 3.778h-10.76v11.564h10.76V28.618ZM15.983 34.4V12.8H4.42v21.6h11.564Zm-5.782-15.818h8.12V7.018h-8.12v11.564Zm8.12 0c.341 0 .576.02.72.039.148.02.157.034.069.003l3.782-10.928c-1.522-.527-3.118-.678-4.571-.678v11.564Zm.98.105c.032.01-.422-.12-.927-.662l8.454-7.89c-1.252-1.342-2.772-2.085-4.127-2.502l-3.4 11.054Zm-.789-.518a2.915 2.915 0 0 1-.743-1.297l11.184-2.944a8.651 8.651 0 0 0-2.263-3.937l-8.178 8.178Zm-.743-1.297c-.007-.027.01.02.01.168h11.564c0-1.025-.116-2.071-.39-3.112l-11.184 2.944Zm.01.168v2.56h11.564v-2.56H17.78Zm0 2.56c0 .045-.004.048.002.016a.724.724 0 0 1 .047-.145l10.586 4.658c.646-1.47.93-3.007.93-4.529H17.778Zm-.027.052a3.903 3.903 0 0 1 1.39-1.775c.368-.25.583-.279.426-.239l2.866 11.204c1.775-.454 4.756-1.644 6.056-4.894l-10.738-4.296Zm3.249 9.37c.341 0 .576.02.72.039.148.02.157.034.069.003l3.782-10.928c-1.522-.527-3.118-.678-4.571-.678v11.564Zm.98.105c-.05-.016-.546-.18-1.052-.76l8.704-7.615c-1.253-1.431-2.815-2.237-4.252-2.679l-3.4 11.054Zm-.927-.622a2.991 2.991 0 0 1-.485-.7 2.805 2.805 0 0 1-.248-.723l11.36-2.164a8.625 8.625 0 0 0-2.173-4.303l-8.454 7.89Zm-.678-1.166c.014.059.043.216.043.501h11.564a13.71 13.71 0 0 0-.357-3.18l-11.25 2.68Zm.043.501v2.56h11.564v-2.56H20.42Zm0 2.56c0 .148-.017.196-.01.168l11.184 2.944c.274-1.04.39-2.087.39-3.112H20.42Zm.01.092c.16-.575.486-1.085.877-1.45l7.87 8.475a8.403 8.403 0 0 0 2.396-3.93L20.43 30.493Zm.723-1.3c.296-.297.56-.459.698-.533.136-.074.195-.085.13-.066l3.401 11.054c1.196-.368 2.692-1.021 3.949-2.278l-8.178-8.178Zm1.026-.655c.019-.006-.066.018-.29.041a9.24 9.24 0 0 1-.927.04v11.564c1.378 0 2.846-.108 4.223-.479l-3.006-11.167ZM18.32 7.416h-7.72v11.565h7.72V7.418ZM4.819 13.2v10.04h11.564V13.2H4.82ZM10.6 29.022h7.72V17.458h-7.72v11.564Zm7.72 0c1.339 0 2.826-.105 4.219-.511l-3.238-11.102c.088-.026.061-.009-.13.012-.184.02-.462.037-.851.037v11.564Zm4.428-.576c1.109-.37 2.511-1.008 3.7-2.197l-8.177-8.178c.29-.29.548-.452.68-.526.135-.074.195-.089.14-.07l3.658 10.97Zm3.7-2.197c1.06-1.06 1.913-2.467 2.235-4.183l-11.366-2.132a3.597 3.597 0 0 1 .954-1.863l8.178 8.178Zm2.18-3.925c.212-.9.314-1.812.314-2.724H17.38a.33.33 0 0 1-.007.076l11.258 2.648Zm.314-2.724v-2.56H17.38v2.56h11.564Zm0-2.56c0-2.257-.681-4.5-2.234-6.39l-8.936 7.34a1.87 1.87 0 0 1-.32-.577 1.26 1.26 0 0 1-.074-.373h11.564Zm-2.234-6.39c-1.3-1.582-2.98-2.347-4.32-2.73-1.35-.386-2.759-.502-4.068-.502v11.564c.325 0 .561.016.721.034.163.018.21.035.17.024-.033-.01-.753-.215-1.44-1.05l8.937-7.34Zm-5.708 7.208h-10.4v11.564h10.4V17.858ZM4.819 23.64V34h11.564V23.64H4.82ZM10.6 39.782h10.36V28.218h-10.36v11.564Zm10.36 0c1.262 0 2.591-.096 3.855-.406 1.208-.295 2.875-.91 4.24-2.335l-8.35-8.002c.39-.407.767-.635 1-.75.117-.06.21-.096.268-.117.058-.02.09-.028.092-.028 0 0-.022.005-.073.013a3.46 3.46 0 0 1-.219.028 8.596 8.596 0 0 1-.813.033v11.564Zm8.175-2.827c1.79-1.946 2.447-4.328 2.447-6.555H20.02c0 .009-.001-.155.092-.423.099-.284.27-.587.515-.852l8.51 7.83Zm2.447-6.555v-2.56H20.02v2.56h11.564Zm0-2.56c0-2.222-.586-4.526-2.113-6.518l-9.178 7.036a1.546 1.546 0 0 1-.25-.473c-.037-.123-.023-.153-.023-.045h11.564Zm-2.04-6.42c-1.252-1.707-2.957-2.57-4.363-3.004-1.396-.432-2.849-.558-4.179-.558v11.564c.313 0 .531.016.67.033.143.017.162.03.091.01-.113-.036-.878-.298-1.544-1.206l9.326-6.838Z" fill="#F32E7C"/></g><g style="mix-blend-mode:hard-light" filter="url(#b)"><path d="M10.201 34.4H2.64v7.562H10.2V34.4Zm0-21.6V5.239H2.64V12.8H10.2Zm10.8.36-2.474 7.145.125.043.125.04 2.224-7.228Zm1.6.92-5.528 5.16.09.095.091.092 5.347-5.347Zm.76 1.32-7.313 1.924 7.313-1.924Zm-.24 6.4L16.2 18.755l-.052.117-.048.12 7.021 2.808Zm-2.12 1.44-1.874-7.326 1.874 14.888V23.24Zm2.68.36-2.474 7.145.125.043.125.04 2.224-7.228Zm1.6.96-5.69 4.98.08.09.082.09 5.528-5.16Zm.72 1.44-7.428 1.415.032.169.04.167L26.001 26Zm0 6.04 7.286 2.024.013-.05.014-.05L26 32.04Zm-.76 1.24-5.145-5.541-.103.095-.099.1 5.347 5.346Zm-1.56.84 1.966 7.302.13-.035.128-.04-2.224-7.227ZM10.601 13.2V5.639H3.04V13.2H10.6Zm0 10.04H3.04v7.562H10.6V23.24Zm10.32-.28 2.117 7.259.138-.04.136-.046-2.391-7.173Zm1.44-.8-5.347-5.347 5.347 5.347Zm.64-1.16-7.36-1.732-.04.168-.032.17L23.001 21Zm-.76-6.68 5.843-4.8-5.843 4.8Zm-11.64 9.32v-7.562H3.04v7.562H10.6Zm0 10.36H3.04v7.562H10.6V34Zm14.28-.96 5.46 5.232.052-.056.053-.056-5.565-5.12Zm0-8.2-6.098 4.472.048.065.05.064 6-4.601Zm-3.92 1.998h-10.76v15.123h10.76V26.84ZM17.762 34.4V12.8H2.64v21.6h15.122Zm-7.561-14.038h8.12V5.239h-8.12V20.36Zm8.12 0c.278 0 .432.015.483.022.023.003.01.003-.034-.008a2.34 2.34 0 0 1-.242-.07l4.946-14.291c-1.777-.616-3.59-.776-5.153-.776V20.36Zm.456.025c-.171-.053-.928-.317-1.704-1.148L28.13 8.921c-1.523-1.631-3.346-2.509-4.904-2.988l-4.448 14.454Zm-1.523-.96a4.695 4.695 0 0 1-1.206-2.103l14.626-3.848a10.43 10.43 0 0 0-2.726-4.743L17.254 19.427Zm-1.206-2.103c-.05-.19-.048-.298-.048-.284h15.122c0-1.16-.131-2.36-.448-3.564l-14.625 3.848ZM16 17.04v2.56h15.122v-2.56H16Zm0 2.56a2.2 2.2 0 0 1 .2-.845l13.842 6.09a12.96 12.96 0 0 0 1.08-5.245H16Zm.1-.608a5.682 5.682 0 0 1 2.042-2.587c.31-.21.567-.332.725-.398.158-.067.253-.09.26-.093l3.748 14.652c1.968-.504 5.649-1.913 7.267-5.958L16.1 18.992Zm4.901 11.81c.278 0 .432.015.483.022.023.003.01.002-.034-.008a2.34 2.34 0 0 1-.242-.07l4.946-14.291c-1.777-.616-3.59-.776-5.153-.776v15.123Zm.456.025c-.278-.086-1.09-.4-1.867-1.288l11.382-9.958c-1.524-1.741-3.402-2.696-5.067-3.208l-4.448 14.454Zm-1.704-1.108a4.72 4.72 0 0 1-1.18-2.304l14.856-2.83a10.404 10.404 0 0 0-2.62-5.184L19.753 29.719Zm-1.108-1.968c-.011-.048-.013-.068-.011-.054.001.015.006.061.006.143h15.122c0-1.166-.116-2.376-.405-3.591L18.645 27.75Zm-.005.089v2.56h15.122v-2.56H18.64Zm0 2.56c0 .014-.002-.093.049-.284l14.624 3.848a13.98 13.98 0 0 0 .45-3.564H18.64Zm.075-.384c.25-.9.753-1.694 1.38-2.277l10.291 11.082a10.183 10.183 0 0 0 2.9-4.757l-14.57-4.048Zm1.18-2.083c.44-.44.851-.7 1.111-.84s.429-.193.451-.2l4.448 14.454c1.35-.415 3.145-1.183 4.683-2.72L19.894 27.933Zm1.82-1.114c.132-.036.144-.026-.008-.01-.146.014-.389.03-.746.03v15.123c1.458 0 3.099-.113 4.686-.54l-3.932-14.603Zm-3.394-21.18h-7.72v15.123h7.72V5.639ZM3.04 13.2v10.04h15.122V13.2H3.04ZM10.6 30.802h7.72V15.679h-7.72v15.123Zm7.72 0c1.415 0 3.092-.109 4.717-.583l-4.234-14.518a2.29 2.29 0 0 1 .213-.053c.025-.004.015-.001-.036.004-.107.012-.32.027-.66.027v15.123Zm4.991-.669c1.252-.417 2.939-1.17 4.396-2.626L17.014 16.813c.43-.429.827-.685 1.075-.823.248-.138.414-.194.44-.203l4.783 14.346Zm4.396-2.626c1.28-1.28 2.329-3 2.725-5.114l-14.864-2.787a5.374 5.374 0 0 1 1.445-2.793l10.694 10.694Zm2.653-4.775c.245-1.038.361-2.087.361-3.132H15.6c0-.085.01-.2.041-.332l14.721 3.464Zm.361-3.132v-2.56H15.6v2.56h15.123Zm0-2.56c0-2.623-.796-5.277-2.638-7.52l-11.686 9.6a3.647 3.647 0 0 1-.63-1.137 2.996 2.996 0 0 1-.168-.943h15.122Zm-2.638-7.52c-1.605-1.953-3.655-2.867-5.206-3.31-1.565-.448-3.152-.571-4.557-.571v15.123c.595 0 .662.063.403-.012-.245-.07-1.335-.424-2.326-1.63l11.686-9.6ZM21 16.078h-10.4v15.123h10.4V16.078ZM3.04 23.64V34h15.122V23.64H3.04ZM10.6 41.562h10.36V26.439h-10.36v15.123Zm10.36 0c1.343 0 2.827-.102 4.279-.458 1.377-.337 3.41-1.068 5.1-2.832L19.422 27.808a5.462 5.462 0 0 1 1.487-1.111c.373-.186.644-.26.733-.281.146-.036-.024.023-.681.023v15.123Zm9.485-3.402c2.152-2.34 2.916-5.184 2.916-7.76H18.24c0-.157.023-.523.192-1.008a4.267 4.267 0 0 1 .885-1.471l11.13 10.239Zm2.916-7.76v-2.56H18.24v2.56h15.123Zm0-2.56c0-2.536-.672-5.242-2.48-7.6l-12.002 9.2a3.322 3.322 0 0 1-.538-1.033 2.052 2.052 0 0 1-.102-.567h15.122Zm-2.383-7.472c-1.548-2.11-3.633-3.144-5.274-3.652-1.626-.503-3.272-.638-4.704-.638v15.123c.568 0 .569.066.236-.037-.347-.108-1.493-.542-2.454-1.852l12.196-8.944Z" fill="#FF26C2"/></g><g style="mix-blend-mode:hard-light" filter="url(#c)"><path d="M10.201 34.4H4.419v5.782H10.2V34.4Zm0-21.6V7.018H4.419V12.8H10.2Zm10.8.36-1.892 5.464.095.033.096.03 1.701-5.527Zm1.6.92-4.227 3.945.068.073.07.07 4.089-4.088Zm.76 1.32-5.592 1.472 5.592-1.472Zm-.24 6.4-5.293-2.329-.04.09-.036.091 5.369 2.148Zm-2.12 1.44-1.433-5.602L21 29.022V23.24Zm2.68.36-1.892 5.464.095.033.096.03 1.701-5.527Zm1.6.96-4.352 3.808.062.07.063.067 4.227-3.945Zm.72 1.44-5.68 1.082.024.13.03.127L26.002 26Zm0 6.04 5.571 1.548.01-.038.01-.038-5.591-1.472Zm-.76 1.24-3.935-4.237-.078.073-.076.075 4.089 4.089Zm-1.56.84 1.503 5.584.1-.027.098-.03-1.701-5.527ZM10.601 13.2V7.418H4.819V13.2H10.6Zm0 10.04H4.819v5.782H10.6V23.24Zm10.32-.28 1.619 5.551.105-.03.105-.035-1.829-5.486Zm1.44-.8-4.089-4.089 4.089 4.089Zm.64-1.16-5.629-1.324-.03.128-.024.13L23 21Zm-.76-6.68 4.468-3.67-4.468 3.67Zm-11.64 9.32v-5.782H4.819v5.782H10.6Zm0 10.36H4.819v5.782H10.6V34Zm14.28-.96 4.175 4 .04-.042.04-.043-4.255-3.915Zm0-8.2-4.663 3.42.037.05.037.048 4.589-3.518Zm-3.92 3.778h-10.76v11.564h10.76V28.618ZM15.983 34.4V12.8H4.42v21.6h11.564Zm-5.782-15.818h8.12V7.018h-8.12v11.564Zm8.12 0c.341 0 .576.02.72.039.148.02.157.034.069.003l3.782-10.928c-1.522-.527-3.118-.678-4.571-.678v11.564Zm.98.105c.032.01-.422-.12-.927-.662l8.454-7.89c-1.252-1.342-2.772-2.085-4.127-2.502l-3.4 11.054Zm-.789-.518a2.915 2.915 0 0 1-.743-1.297l11.184-2.944a8.651 8.651 0 0 0-2.263-3.937l-8.178 8.178Zm-.743-1.297c-.007-.027.01.02.01.168h11.564c0-1.025-.116-2.071-.39-3.112l-11.184 2.944Zm.01.168v2.56h11.564v-2.56H17.78Zm0 2.56c0 .045-.004.048.002.016a.724.724 0 0 1 .047-.145l10.586 4.658c.646-1.47.93-3.007.93-4.529H17.778Zm-.027.052a3.903 3.903 0 0 1 1.39-1.775c.368-.25.583-.279.426-.239l2.866 11.204c1.775-.454 4.756-1.644 6.056-4.894l-10.738-4.296Zm3.249 9.37c.341 0 .576.02.72.039.148.02.157.034.069.003l3.782-10.928c-1.522-.527-3.118-.678-4.571-.678v11.564Zm.98.105c-.05-.016-.546-.18-1.052-.76l8.704-7.615c-1.253-1.431-2.815-2.237-4.252-2.679l-3.4 11.054Zm-.927-.622a2.991 2.991 0 0 1-.485-.7 2.805 2.805 0 0 1-.248-.723l11.36-2.164a8.625 8.625 0 0 0-2.173-4.303l-8.454 7.89Zm-.678-1.166c.014.059.043.216.043.501h11.564a13.71 13.71 0 0 0-.357-3.18l-11.25 2.68Zm.043.501v2.56h11.564v-2.56H20.42Zm0 2.56c0 .148-.017.196-.01.168l11.184 2.944c.274-1.04.39-2.087.39-3.112H20.42Zm.01.092c.16-.575.486-1.085.877-1.45l7.87 8.475a8.403 8.403 0 0 0 2.396-3.93L20.43 30.493Zm.723-1.3c.296-.297.56-.459.698-.533.136-.074.195-.085.13-.066l3.401 11.054c1.196-.368 2.692-1.021 3.949-2.278l-8.178-8.178Zm1.026-.655c.019-.006-.066.018-.29.041a9.24 9.24 0 0 1-.927.04v11.564c1.378 0 2.846-.108 4.223-.479l-3.006-11.167ZM18.32 7.416h-7.72v11.565h7.72V7.418ZM4.819 13.2v10.04h11.564V13.2H4.82ZM10.6 29.022h7.72V17.458h-7.72v11.564Zm7.72 0c1.339 0 2.826-.105 4.219-.511l-3.238-11.102c.088-.026.061-.009-.13.012-.184.02-.462.037-.851.037v11.564Zm4.428-.576c1.109-.37 2.511-1.008 3.7-2.197l-8.177-8.178c.29-.29.548-.452.68-.526.135-.074.195-.089.14-.07l3.658 10.97Zm3.7-2.197c1.06-1.06 1.913-2.467 2.235-4.183l-11.366-2.132a3.597 3.597 0 0 1 .954-1.863l8.178 8.178Zm2.18-3.925c.212-.9.314-1.812.314-2.724H17.38a.33.33 0 0 1-.007.076l11.258 2.648Zm.314-2.724v-2.56H17.38v2.56h11.564Zm0-2.56c0-2.257-.681-4.5-2.234-6.39l-8.936 7.34a1.87 1.87 0 0 1-.32-.577 1.26 1.26 0 0 1-.074-.373h11.564Zm-2.234-6.39c-1.3-1.582-2.98-2.347-4.32-2.73-1.35-.386-2.759-.502-4.068-.502v11.564c.325 0 .561.016.721.034.163.018.21.035.17.024-.033-.01-.753-.215-1.44-1.05l8.937-7.34Zm-5.708 7.208h-10.4v11.564h10.4V17.858ZM4.819 23.64V34h11.564V23.64H4.82ZM10.6 39.782h10.36V28.218h-10.36v11.564Zm10.36 0c1.262 0 2.591-.096 3.855-.406 1.208-.295 2.875-.91 4.24-2.335l-8.35-8.002c.39-.407.767-.635 1-.75.117-.06.21-.096.268-.117.058-.02.09-.028.092-.028 0 0-.022.005-.073.013a3.46 3.46 0 0 1-.219.028 8.596 8.596 0 0 1-.813.033v11.564Zm8.175-2.827c1.79-1.946 2.447-4.328 2.447-6.555H20.02c0 .009-.001-.155.092-.423.099-.284.27-.587.515-.852l8.51 7.83Zm2.447-6.555v-2.56H20.02v2.56h11.564Zm0-2.56c0-2.222-.586-4.526-2.113-6.518l-9.178 7.036a1.546 1.546 0 0 1-.25-.473c-.037-.123-.023-.153-.023-.045h11.564Zm-2.04-6.42c-1.252-1.707-2.957-2.57-4.363-3.004-1.396-.432-2.849-.558-4.179-.558v11.564c.313 0 .531.016.67.033.143.017.162.03.091.01-.113-.036-.878-.298-1.544-1.206l9.326-6.838Z" fill="#FB37FF" fill-opacity=".2"/></g><g filter="url(#d)"><path d="M10.201 34.4H6.643v3.558H10.2V34.4Zm0-21.6V9.242H6.643V12.8H10.2Zm10.8.36-1.164 3.363.058.02.06.018L21 13.16Zm1.6.92L20 16.508l.041.045.044.043L22.6 14.08Zm.76 1.32-3.441.906 3.441-.906Zm-.24 6.4-3.257-1.433-.024.055-.023.056 3.304 1.322Zm-2.12 1.44-.882-3.447.882 7.005V23.24Zm2.68.36-1.164 3.363.058.02.06.018L23.68 23.6Zm1.6.96-2.678 2.343.038.043.039.042 2.601-2.428Zm.72 1.44-3.495.666.015.08.018.078L26.001 26Zm0 6.04 3.428.952.007-.023.006-.023-3.441-.906Zm-.76 1.24-2.421-2.608-.049.045-.046.047 2.516 2.516Zm-1.56.84.925 3.436.061-.016.06-.019-1.046-3.401ZM10.601 13.2V9.642H7.043V13.2H10.6Zm0 10.04H7.043v3.558H10.6V23.24Zm10.32-.28.996 3.416.065-.019.064-.021-1.125-3.376Zm1.44-.8-2.516-2.516 2.516 2.516Zm.64-1.16-3.464-.815-.018.08-.015.08L23 21Zm-.76-6.68 2.75-2.259-2.75 2.259Zm-11.64 9.32v-3.558H7.043v3.558H10.6Zm0 10.36H7.043v3.558H10.6V34Zm14.28-.96 2.57 2.462.024-.026.025-.027-2.619-2.409Zm0-8.2-2.87 2.104.023.03.023.031 2.824-2.165Zm-3.92 6.002h-10.76v7.116h10.76v-7.116ZM13.759 34.4V12.8H6.643v21.6h7.116Zm-3.558-18.042h8.12V9.242h-8.12v7.116Zm8.12 0c.872 0 1.333.101 1.516.165l2.328-6.726c-1.203-.416-2.53-.555-3.844-.555v7.116Zm1.633.203c.068.02.116.039.148.053.032.013.046.021.045.02a.72.72 0 0 1-.147-.126l5.202-4.856c-.914-.98-2.054-1.554-3.155-1.893l-2.093 6.802Zm.13.035a.672.672 0 0 1-.165-.29l6.883-1.812a6.426 6.426 0 0 0-1.685-2.93l-5.032 5.032Zm-.164-.29c.047.178.083.417.083.734h7.116c0-.856-.097-1.71-.317-2.546l-6.882 1.812Zm.083.734v2.56h7.116v-2.56h-7.116Zm0 2.56c0 .355-.063.595-.139.767l6.514 2.866a8.958 8.958 0 0 0 .741-3.633h-7.116Zm-.186.878c.083-.206.194-.38.309-.516.112-.132.212-.21.266-.245.09-.062.044-.005-.273.076l1.764 6.894c1.533-.392 3.64-1.309 4.542-3.566l-6.608-2.642Zm1.184 6.32c.872 0 1.333.101 1.516.165l2.328-6.726c-1.203-.416-2.53-.555-3.844-.555v7.116Zm1.633.203c.117.036.153.06.136.05a.918.918 0 0 1-.167-.148l5.356-4.686c-.915-1.045-2.08-1.664-3.232-2.018l-2.093 6.802Zm.046-.013a.763.763 0 0 1-.174-.322l6.99-1.332a6.402 6.402 0 0 0-1.614-3.202l-5.202 4.856Zm-.14-.164c.06.252.103.584.103 1.016h7.116c0-.902-.09-1.796-.297-2.664l-6.923 1.648Zm.103 1.016v2.56h7.116v-2.56h-7.116Zm0 2.56c0 .317-.036.556-.083.734l6.882 1.812c.22-.835.317-1.69.317-2.546h-7.116Zm-.07.688a.947.947 0 0 1 .247-.416l4.842 5.216a6.18 6.18 0 0 0 1.768-2.896l-6.857-1.904Zm.152-.324c.115-.116.194-.155.179-.147a2.334 2.334 0 0 1-.27.102l2.093 6.802c1.003-.308 2.123-.818 3.03-1.725l-5.032-5.032Zm.03-.08c-.272.073-.833.158-1.794.158v7.116c1.279 0 2.531-.102 3.645-.402l-1.85-6.872ZM18.322 9.642h-7.72v7.116h7.72V9.642ZM7.043 13.2v10.04h7.116V13.2H7.043ZM10.6 26.798h7.72v-7.116h-7.72v7.116Zm7.72 0c1.244 0 2.493-.1 3.596-.422l-1.992-6.832c-.177.051-.662.138-1.604.138v7.116Zm3.725-.462c.928-.31 1.976-.805 2.831-1.66l-5.032-5.032c.06-.06.11-.1.142-.123.032-.024.05-.033.046-.032a2.264 2.264 0 0 1-.237.095l2.25 6.752Zm2.831-1.66c.786-.786 1.393-1.8 1.621-3.02l-6.994-1.312c.03-.165.088-.32.161-.453.072-.13.143-.21.18-.247l5.032 5.032Zm1.588-2.861a9.65 9.65 0 0 0 .254-2.215h-7.116c0 .214-.024.407-.066.585l6.928 1.63Zm.254-2.215v-2.56h-7.116v2.56h7.116Zm0-2.56c0-1.8-.537-3.528-1.728-4.979l-5.5 4.518c.036.043.112.127.112.461h7.116Zm-1.728-4.979c-.918-1.117-2.137-1.695-3.212-2.002-1.083-.31-2.268-.417-3.458-.417v7.116c.81 0 1.278.08 1.502.143.231.066-.027.048-.332-.322l5.5-4.518ZM21 20.081h-10.4v7.117h10.4v-7.116ZM7.043 23.64V34h7.116V23.64H7.043ZM10.6 37.558h10.36v-7.116h-10.36v7.116Zm10.36 0c1.161 0 2.297-.09 3.326-.342.995-.243 2.205-.714 3.163-1.714l-5.138-4.924c.345-.36.595-.35.283-.274-.278.068-.795.138-1.634.138v7.116ZM27.5 35.45c1.337-1.454 1.86-3.258 1.86-5.049h-7.117c0 .216-.03.304-.032.309-.001.002.003-.009.014-.028a.307.307 0 0 1 .037-.05l5.238 4.818Zm1.86-5.049v-2.56h-7.117v2.56h7.116Zm0-2.56c0-1.829-.48-3.632-1.655-5.165l-5.648 4.33c.051.067.186.264.186.835h7.116Zm-1.61-5.104c-.883-1.205-2.113-1.85-3.228-2.195-1.107-.343-2.318-.46-3.521-.46v7.117c.797 0 1.233.084 1.419.142.178.055-.112.009-.409-.396l5.74-4.208Z" fill="#FB37FF"/></g><g filter="url(#e)"><path d="M10.2 34.4H8.42v1.78h1.78V34.4Zm0-21.6v-1.78H8.42v1.78h1.78Zm10.8.36-.582 1.681.03.01.029.01L21 13.16Zm1.6.92-1.3 1.214.02.022.022.022L22.6 14.08Zm.76 1.32-1.72.453 1.72-.453Zm-.24 6.4-1.629-.716-.012.027-.01.028 1.651.661ZM21 23.24l-.44-1.724.44 3.503V23.24Zm2.68.36-.582 1.681.03.01.029.01.523-1.701Zm1.6.96-1.339 1.172.019.021.02.021 1.3-1.214ZM26 26l-1.748.333.008.04.01.04L26 26Zm0 6.04 1.714.476.004-.011.003-.012L26 32.04Zm-.76 1.24-1.21-1.304-.025.023-.023.023 1.258 1.258Zm-1.56.84.462 1.718.031-.008.03-.01-.523-1.7ZM10.6 13.2v-1.78H8.82v1.78h1.78Zm0 10.04H8.82v1.78h1.78v-1.78Zm10.32-.28.498 1.708.033-.01.032-.01-.563-1.688Zm1.44-.8-1.258-1.258 1.258 1.258ZM23 21l-1.732-.407-.01.04-.007.04L23 21Zm-.76-6.68 1.375-1.13-1.375 1.13ZM10.6 23.64v-1.78H8.82v1.78h1.78Zm0 10.36H8.82v1.78h1.78V34Zm14.28-.96 1.285 1.231.012-.013.012-.013-1.309-1.205Zm0-8.2-1.435 1.052.011.015.012.015 1.412-1.082Zm-3.92 7.78H10.2v3.56h10.76v-3.56Zm-8.98 1.78V12.8H8.42v21.6h3.56ZM10.2 14.58h8.12v-3.56H10.2v3.56Zm8.12 0c.983 0 1.66.11 2.098.261l1.164-3.362c-.948-.329-2.058-.458-3.262-.458v3.558Zm2.157.28c.49.151.72.324.822.434l2.602-2.428c-.644-.69-1.481-1.13-2.378-1.406l-1.046 3.4Zm.865.478c.152.153.245.315.297.515l3.442-.906a4.648 4.648 0 0 0-1.223-2.125l-2.516 2.516Zm.297.515c.09.342.142.735.142 1.187h3.558c0-.721-.082-1.422-.258-2.093l-3.442.906Zm.142 1.187v2.56h3.558v-2.56h-3.558Zm0 2.56c0 .578-.105 1.064-.29 1.483l3.258 1.434a7.18 7.18 0 0 0 .59-2.917h-3.558Zm-.313 1.54c.022-.055.039-.031-.078.048-.131.09-.386.215-.83.328l.88 3.448c1.34-.343 2.747-1.042 3.332-2.503l-3.304-1.322ZM21 25.02c.983 0 1.66.11 2.098.261l1.164-3.362c-.948-.329-2.058-.458-3.262-.458v3.558Zm2.157.28c.464.143.681.314.784.432l2.678-2.344c-.644-.736-1.494-1.205-2.416-1.489L23.157 25.3Zm.822.474c.135.144.227.314.273.559l3.496-.666a4.623 4.623 0 0 0-1.167-2.321l-2.602 2.428Zm.29.638c.097.406.152.879.152 1.428h3.558c0-.784-.078-1.538-.248-2.252l-3.462.824Zm.152 1.428v2.56h3.558v-2.56h-3.558Zm0 2.56c0 .452-.052.845-.142 1.187l3.442.906c.176-.671.258-1.372.258-2.093h-3.558Zm-.135 1.164a.844.844 0 0 1-.257.412l2.422 2.608a4.4 4.4 0 0 0 1.263-2.068l-3.428-.952Zm-.304.458c-.067.067-.286.232-.825.398l1.046 3.4c.848-.26 1.668-.655 2.295-1.282l-2.516-2.516Zm-.764.38c-.483.13-1.217.219-2.258.219v3.558c1.2 0 2.279-.098 3.182-.341l-.924-3.436ZM18.32 11.421H10.6v3.558h7.72v-3.558ZM8.82 13.2v10.04h3.56V13.2H8.82Zm1.78 11.82h7.72v-3.56H10.6v3.56Zm7.72 0c1.169 0 2.226-.098 3.098-.352l-.996-3.416c-.408.12-1.084.209-2.102.209v3.558Zm3.163-.372c.784-.261 1.548-.642 2.135-1.23l-2.516-2.516c-.053.052-.249.205-.745.37l1.126 3.376Zm2.135-1.23c.566-.566.976-1.267 1.13-2.09l-3.497-.656c-.005.03-.022.103-.15.23l2.517 2.516Zm1.114-2.01c.139-.591.207-1.195.207-1.808h-3.558c0 .347-.039.677-.113.992l3.464.816Zm.207-1.808v-2.56h-3.558v2.56h3.558Zm0-2.56c0-1.433-.422-2.75-1.324-3.85l-2.75 2.26c.325.394.516.89.516 1.59h3.558Zm-1.324-3.85c-.612-.745-1.462-1.174-2.326-1.42-.868-.249-1.874-.35-2.969-.35v3.56c.905 0 1.552.085 1.991.21.442.127.553.258.554.26l2.75-2.26ZM21 21.86H10.6v3.56H21v-3.56ZM8.82 23.64V34h3.56V23.64H8.82Zm1.78 12.14h10.36v-3.56H10.6v3.56Zm10.36 0c1.08 0 2.062-.086 2.903-.292.824-.202 1.67-.557 2.302-1.217l-2.57-2.462c.02-.02-.095.105-.578.223-.466.114-1.138.189-2.057.189v3.558Zm5.23-1.535c.975-1.06 1.39-2.403 1.39-3.845h-3.56c0 .745-.198 1.162-.45 1.435l2.62 2.41Zm1.39-3.845v-2.56h-3.56v2.56h3.56Zm0-2.56c0-1.514-.394-2.916-1.288-4.082l-2.824 2.165c.332.433.553 1.031.553 1.917h3.558Zm-1.265-4.052c-.589-.803-1.439-1.275-2.32-1.548-.877-.271-1.893-.38-2.995-.38v3.56c.898 0 1.528.091 1.944.22.203.062.33.126.406.175.073.046.094.075.095.077l2.87-2.104Z" fill="#fff"/></g><defs><filter id="a" x=".201" y="2.8" width="36" height="41.6" filterUnits="userSpaceOnUse" color-interpolation-filters="sRGB"><feFlood flood-opacity="0" result="BackgroundImageFix"/><feBlend in="SourceGraphic" in2="BackgroundImageFix" result="shape"/><feGaussianBlur stdDeviation="5" result="effect1_foregroundBlur_721_9"/></filter><filter id="b" x="5.709" y="8.307" width="24.985" height="30.585" filterUnits="userSpaceOnUse" color-interpolation-filters="sRGB"><feFlood flood-opacity="0" result="BackgroundImageFix"/><feBlend in="SourceGraphic" in2="BackgroundImageFix" result="shape"/><feGaussianBlur stdDeviation="2.246" result="effect1_foregroundBlur_721_9"/></filter><filter id="c" x="4.361" y="11.452" width="27.68" height="33.28" filterUnits="userSpaceOnUse" color-interpolation-filters="sRGB"><feFlood flood-opacity="0" result="BackgroundImageFix"/><feColorMatrix in="SourceAlpha" values="0 0 0 0 0 0 0 0 0 0 0 0 0 0 0 0 0 0 127 0" result="hardAlpha"/><feOffset dy="5.782"/><feGaussianBlur stdDeviation="2.224"/><feColorMatrix values="0 0 0 0 0.3 0 0 0 0 0 0 0 0 0 0.26 0 0 0 0.7 0"/><feBlend mode="multiply" in2="BackgroundImageFix" result="effect1_dropShadow_721_9"/><feColorMatrix in="SourceAlpha" values="0 0 0 0 0 0 0 0 0 0 0 0 0 0 0 0 0 0 127 0" result="hardAlpha"/><feOffset dy="4.492"/><feGaussianBlur stdDeviation="2.92"/><feColorMatrix values="0 0 0 0 0.6 0 0 0 0 0 0 0 0 0 0.6 0 0 0 1 0"/><feBlend mode="color-dodge" in2="effect1_dropShadow_721_9" result="effect2_dropShadow_721_9"/><feBlend in="SourceGraphic" in2="effect2_dropShadow_721_9" result="shape"/><feColorMatrix in="SourceAlpha" values="0 0 0 0 0 0 0 0 0 0 0 0 0 0 0 0 0 0 127 0" result="hardAlpha"/><feOffset dx="-.578" dy="1.156"/><feGaussianBlur stdDeviation=".289"/><feComposite in2="hardAlpha" operator="arithmetic" k2="-1" k3="1"/><feColorMatrix values="0 0 0 0 1 0 0 0 0 1 0 0 0 0 1 0 0 0 0.5 0"/><feBlend in2="shape" result="effect3_innerShadow_721_9"/></filter><filter id="d" x="9.311" y="11.91" width="17.779" height="23.379" filterUnits="userSpaceOnUse" color-interpolation-filters="sRGB"><feFlood flood-opacity="0" result="BackgroundImageFix"/><feBlend in="SourceGraphic" in2="BackgroundImageFix" result="shape"/><feGaussianBlur stdDeviation=".445" result="effect1_foregroundBlur_721_9"/></filter><filter id="e" x="9.607" y="12.207" width="17.186" height="22.786" filterUnits="userSpaceOnUse" color-interpolation-filters="sRGB"><feFlood flood-opacity="0" result="BackgroundImageFix"/><feBlend in="SourceGraphic" in2="BackgroundImageFix" result="shape"/><feGaussianBlur stdDeviation=".297" result="effect1_foregroundBlur_721_9"/></filter></defs></svg>