<svg width="37" height="45" viewBox="0 0 37 45" fill="none" xmlns="http://www.w3.org/2000/svg">
<g style="mix-blend-mode:hard-light" filter="url(#filter0_f_721_9)">
<path d="M10.201 34.4H4.41868V40.1823H10.201V34.4ZM10.201 12.8V7.01771H4.41868V12.8H10.201ZM21.001 13.16L19.1095 18.6242L19.2045 18.657L19.3005 18.6866L21.001 13.16ZM22.601 14.08L18.3738 18.0254L18.4418 18.0982L18.5123 18.1687L22.601 14.08ZM23.361 15.4L17.7691 16.8715L17.7691 16.8716L23.361 15.4ZM23.121 21.8L17.8284 19.4712L17.7888 19.5612L17.7523 19.6525L23.121 21.8ZM21.001 23.24L19.5679 17.6381L21.001 29.0223V23.24ZM23.681 23.6L21.7895 29.0642L21.8845 29.097L21.9805 29.1266L23.681 23.6ZM25.281 24.56L20.9294 28.3677L20.9905 28.4375L21.0538 28.5054L25.281 24.56ZM26.001 26L20.3208 27.0819L20.3454 27.2112L20.3759 27.3393L26.001 26ZM26.001 32.04L31.5723 33.5876L31.5829 33.5496L31.5929 33.5116L26.001 32.04ZM25.241 33.28L21.3064 29.0428L21.228 29.1156L21.1523 29.1913L25.241 33.28ZM23.681 34.12L25.1842 39.7035L25.2833 39.6768L25.3815 39.6466L23.681 34.12ZM10.601 13.2V7.41771H4.81869V13.2H10.601ZM10.601 23.24H4.81869V29.0223H10.601V23.24ZM20.921 22.96L22.54 28.511L22.6454 28.4803L22.7495 28.4456L20.921 22.96ZM22.361 22.16L18.2723 18.0713L18.2723 18.0713L22.361 22.16ZM23.001 21L17.3724 19.6756L17.3421 19.8044L17.3177 19.9344L23.001 21ZM22.241 14.32L26.7091 10.6498L26.7091 10.6498L22.241 14.32ZM10.601 23.64V17.8577H4.81869V23.64H10.601ZM10.601 34H4.81869V39.7823H10.601V34ZM24.881 33.04L29.0557 37.0408L29.0965 36.9983L29.1363 36.9549L24.881 33.04ZM24.881 24.84L20.2181 28.2594L20.2546 28.3092L20.2921 28.3581L24.881 24.84ZM20.961 28.6177H10.201V40.1823H20.961V28.6177ZM15.9833 34.4V12.8H4.41868V34.4H15.9833ZM10.201 18.5823H18.321V7.01771H10.201V18.5823ZM18.321 18.5823C18.6623 18.5823 18.8966 18.6014 19.0412 18.6208C19.1889 18.6407 19.1983 18.6549 19.1095 18.6242L22.8924 7.69581C21.3703 7.16893 19.774 7.01771 18.321 7.01771V18.5823ZM19.3005 18.6866C19.3326 18.6965 18.8791 18.5668 18.3738 18.0254L26.8282 10.1346C25.5762 8.79324 24.056 8.05019 22.7015 7.63341L19.3005 18.6866ZM18.5123 18.1687C18.1676 17.824 17.8984 17.363 17.7691 16.8715L28.9529 13.9285C28.5569 12.4237 27.781 11.0827 26.6897 9.9913L18.5123 18.1687ZM17.7691 16.8716C17.762 16.8445 17.7787 16.8916 17.7787 17.04H29.3433C29.3433 16.0151 29.2267 14.9688 28.9529 13.9284L17.7691 16.8716ZM17.7787 17.04V19.6H29.3433V17.04H17.7787ZM17.7787 19.6C17.7787 19.6455 17.7746 19.6476 17.781 19.616C17.7876 19.5829 17.8019 19.5315 17.8284 19.4712L28.4136 24.1287C29.0604 22.6588 29.3433 21.1223 29.3433 19.6H17.7787ZM17.7523 19.6525C18.1229 18.7259 18.7262 18.1592 19.142 17.8768C19.5102 17.6267 19.7246 17.598 19.5679 17.6381L22.434 28.8419C24.209 28.3878 27.1897 27.1976 28.4897 23.9475L17.7523 19.6525ZM21.001 29.0223C21.3423 29.0223 21.5766 29.0414 21.7212 29.0608C21.8689 29.0807 21.8783 29.0949 21.7895 29.0642L25.5724 18.1358C24.0503 17.6089 22.454 17.4577 21.001 17.4577V29.0223ZM21.9805 29.1266C21.9306 29.1113 21.4355 28.9461 20.9294 28.3677L29.6326 20.7523C28.3798 19.3206 26.818 18.5154 25.3815 18.0734L21.9805 29.1266ZM21.0538 28.5054C20.8695 28.3079 20.7021 28.0717 20.5691 27.8059C20.437 27.5417 20.3608 27.2918 20.3208 27.0819L31.6811 24.9181C31.3792 23.3328 30.6586 21.8472 29.5082 20.6146L21.0538 28.5054ZM20.3759 27.3393C20.3899 27.398 20.4187 27.5552 20.4187 27.84H31.9833C31.9833 26.7915 31.8787 25.722 31.626 24.6607L20.3759 27.3393ZM20.4187 27.84V30.4H31.9833V27.84H20.4187ZM20.4187 30.4C20.4187 30.5484 20.402 30.5955 20.4091 30.5684L31.5929 33.5116C31.8667 32.4712 31.9833 31.4249 31.9833 30.4H20.4187ZM20.4296 30.4924C20.5894 29.9174 20.9146 29.4066 21.3064 29.0428L29.1755 37.5172C30.314 36.4601 31.1459 35.1226 31.5723 33.5876L20.4296 30.4924ZM21.1523 29.1913C21.4485 28.8951 21.7119 28.733 21.8496 28.6589C21.9865 28.5851 22.045 28.5736 21.9805 28.5934L25.3815 39.6466C26.5766 39.2788 28.0726 38.6258 29.3297 37.3687L21.1523 29.1913ZM22.1777 28.5365C22.1968 28.5314 22.1122 28.5551 21.8889 28.5781C21.6706 28.6006 21.366 28.6177 20.961 28.6177V40.1823C22.3392 40.1823 23.8073 40.0742 25.1842 39.7035L22.1777 28.5365ZM18.321 7.41771H10.601V18.9823H18.321V7.41771ZM4.81869 13.2V23.24H16.3833V13.2H4.81869ZM10.601 29.0223H18.321V17.4577H10.601V29.0223ZM18.321 29.0223C19.66 29.0223 21.1466 28.9174 22.54 28.511L19.3019 17.409C19.3905 17.3832 19.3635 17.4003 19.1718 17.4209C18.988 17.4407 18.7102 17.4577 18.321 17.4577V29.0223ZM22.7495 28.4456C23.8576 28.0762 25.2603 27.4381 26.4497 26.2487L18.2723 18.0713C18.5629 17.7807 18.8195 17.6195 18.9528 17.5454C19.0866 17.4711 19.1469 17.4563 19.0925 17.4744L22.7495 28.4456ZM26.4497 26.2487C27.5098 25.1885 28.3624 23.7822 28.6842 22.0656L17.3177 19.9344C17.4796 19.0712 17.9054 18.4381 18.2723 18.0713L26.4497 26.2487ZM28.6296 22.3244C28.8414 21.4238 28.9433 20.5122 28.9433 19.6H17.3787C17.3787 19.6478 17.3738 19.6695 17.3724 19.6756L28.6296 22.3244ZM28.9433 19.6V17.04H17.3787V19.6H28.9433ZM28.9433 17.04C28.9433 14.783 28.2618 12.5399 26.7091 10.6498L17.7728 17.9902C17.6404 17.829 17.5262 17.6276 17.4535 17.4127C17.3833 17.205 17.3787 17.0652 17.3787 17.04H28.9433ZM26.7091 10.6498C25.4098 9.06804 23.7293 8.30299 22.3895 7.92019C21.0386 7.53423 19.6304 7.41771 18.321 7.41771V18.9823C18.6459 18.9823 18.8821 18.9977 19.0423 19.0158C19.2054 19.0342 19.2526 19.0513 19.2125 19.0398C19.1793 19.0303 18.4588 18.8253 17.7728 17.9902L26.7091 10.6498ZM21.001 17.8577H10.601V29.4223H21.001V17.8577ZM4.81869 23.64V34H16.3833V23.64H4.81869ZM10.601 39.7823H20.961V28.2177H10.601V39.7823ZM20.961 39.7823C22.2232 39.7823 23.5522 39.6859 24.8164 39.3763C26.0237 39.0807 27.6907 38.4652 29.0557 37.0408L20.7062 29.0392C21.0966 28.6318 21.4733 28.404 21.7051 28.2882C21.8231 28.2291 21.9159 28.1929 21.974 28.1724C22.0323 28.1518 22.0648 28.1439 22.0656 28.1437C22.0666 28.1434 22.0436 28.149 21.9929 28.1573C21.9424 28.1655 21.8703 28.1753 21.774 28.1846C21.5785 28.2035 21.3111 28.2177 20.961 28.2177V39.7823ZM29.1363 36.9549C30.9268 35.0088 31.5833 32.627 31.5833 30.4H20.0187C20.0187 30.4085 20.0176 30.2446 20.1107 29.9772C20.2097 29.6932 20.3819 29.39 20.6256 29.1251L29.1363 36.9549ZM31.5833 30.4V27.84H20.0187V30.4H31.5833ZM31.5833 27.84C31.5833 25.6183 30.9968 23.3135 29.4698 21.3219L20.2921 28.3581C20.1639 28.1909 20.0838 28.0189 20.0428 27.8853C20.005 27.762 20.0187 27.7317 20.0187 27.84H31.5833ZM29.5438 21.4206C28.2915 19.7129 26.5862 18.8509 25.1795 18.4159C23.7835 17.9841 22.3314 17.8577 21.001 17.8577V29.4223C21.3136 29.4223 21.5322 29.4382 21.6713 29.4551C21.8135 29.4724 21.8329 29.4859 21.7625 29.4641C21.6491 29.4291 20.8838 29.1671 20.2181 28.2594L29.5438 21.4206Z" fill="#F32E7C"/>
</g>
<g style="mix-blend-mode:hard-light" filter="url(#filter1_f_721_9)">
<path d="M10.201 34.4H2.63952V41.9615H10.201V34.4ZM10.201 12.8V5.23854H2.63952V12.8H10.201ZM21.001 13.16L18.5275 20.3055L18.6517 20.3484L18.7773 20.3871L21.001 13.16ZM22.601 14.08L17.0731 19.2393L17.1621 19.3346L17.2542 19.4268L22.601 14.08ZM23.361 15.4L16.0485 17.3243L16.0485 17.3243L23.361 15.4ZM23.121 21.8L16.1999 18.7547L16.1481 18.8724L16.1003 18.9917L23.121 21.8ZM21.001 23.24L19.127 15.9144L21.001 30.8015V23.24ZM23.681 23.6L21.2075 30.7455L21.3317 30.7884L21.4573 30.8271L23.681 23.6ZM25.281 24.56L19.5904 29.5393L19.6703 29.6306L19.7531 29.7193L25.281 24.56ZM26.001 26L18.5731 27.4148L18.6053 27.5839L18.6451 27.7514L26.001 26ZM26.001 32.04L33.2866 34.0638L33.3004 34.0141L33.3135 33.9643L26.001 32.04ZM25.241 33.28L20.0958 27.739L19.9932 27.8343L19.8942 27.9332L25.241 33.28ZM23.681 34.12L25.6468 41.4215L25.7764 41.3866L25.9047 41.3471L23.681 34.12ZM10.601 13.2V5.63854H3.03952V13.2H10.601ZM10.601 23.24H3.03952V30.8015H10.601V23.24ZM20.921 22.96L23.0382 30.219L23.176 30.1788L23.3121 30.1334L20.921 22.96ZM22.361 22.16L17.0142 16.8132L17.0142 16.8132L22.361 22.16ZM23.001 21L15.6405 19.2681L15.6009 19.4365L15.569 19.6065L23.001 21ZM22.241 14.32L28.0839 9.52045L28.0839 9.52044L22.241 14.32ZM10.601 23.64V16.0785H3.03952V23.64H10.601ZM10.601 34H3.03952V41.5615H10.601V34ZM24.881 33.04L30.3403 38.2718L30.3935 38.2162L30.4457 38.1595L24.881 33.04ZM24.881 24.84L18.7834 29.3116L18.8311 29.3766L18.8802 29.4406L24.881 24.84ZM20.961 26.8385H10.201V41.9615H20.961V26.8385ZM17.7624 34.4V12.8H2.63952V34.4H17.7624ZM10.201 20.3615H18.321V5.23854H10.201V20.3615ZM18.321 20.3615C18.5991 20.3615 18.7527 20.3772 18.8043 20.3841C18.8274 20.3872 18.8143 20.3865 18.7704 20.3765C18.7267 20.3666 18.643 20.3454 18.5275 20.3055L23.4744 6.01453C21.6973 5.39937 19.8846 5.23854 18.321 5.23854V20.3615ZM18.7773 20.3871C18.6059 20.3344 17.8488 20.0704 17.0731 19.2393L28.1288 8.92067C26.6065 7.28962 24.7827 6.41231 23.2247 5.93292L18.7773 20.3871ZM17.2542 19.4268C16.6886 18.8611 16.2586 18.1229 16.0485 17.3243L30.6735 13.4757C30.1967 11.6638 29.26 10.0455 27.9477 8.73324L17.2542 19.4268ZM16.0485 17.3243C15.9982 17.1331 15.9995 17.0264 15.9995 17.04H31.1224C31.1224 15.8803 30.9905 14.6803 30.6735 13.4757L16.0485 17.3243ZM15.9995 17.04V19.6H31.1224V17.04H15.9995ZM15.9995 19.6C15.9995 19.4554 16.031 19.1385 16.1999 18.7547L30.0421 24.8453C30.7976 23.1281 31.1224 21.3446 31.1224 19.6H15.9995ZM16.1003 18.9917C16.6261 17.6775 17.4899 16.8482 18.1423 16.405C18.4514 16.1951 18.7088 16.0726 18.8667 16.0067C19.0254 15.9405 19.1205 15.9161 19.127 15.9144L22.875 30.5656C24.8432 30.0621 28.5236 28.6532 30.1416 24.6083L16.1003 18.9917ZM21.001 30.8015C21.2791 30.8015 21.4327 30.8172 21.4843 30.8241C21.5074 30.8272 21.4943 30.8265 21.4504 30.8165C21.4067 30.8066 21.323 30.7854 21.2075 30.7455L26.1544 16.4545C24.3773 15.8394 22.5646 15.6785 21.001 15.6785V30.8015ZM21.4573 30.8271C21.1787 30.7414 20.3671 30.4269 19.5904 29.5393L30.9716 19.5807C29.4482 17.8398 27.5699 16.8853 25.9047 16.3729L21.4573 30.8271ZM19.7531 29.7193C19.1103 29.0306 18.7218 28.1956 18.5731 27.4148L33.4289 24.5852C33.0668 22.6844 32.1983 20.8894 30.8088 19.4007L19.7531 29.7193ZM18.6451 27.7514C18.6335 27.7026 18.6322 27.6827 18.6338 27.6971C18.6354 27.7117 18.6395 27.758 18.6395 27.84H33.7624C33.7624 26.674 33.6462 25.4642 33.3568 24.2486L18.6451 27.7514ZM18.6395 27.84V30.4H33.7624V27.84H18.6395ZM18.6395 30.4C18.6395 30.4136 18.6382 30.3069 18.6885 30.1157L33.3135 33.9643C33.6305 32.7597 33.7624 31.5597 33.7624 30.4H18.6395ZM18.7154 30.0162C18.9653 29.1166 19.4685 28.3215 20.0958 27.739L30.3862 38.821C31.7601 37.5452 32.77 35.9234 33.2866 34.0638L18.7154 30.0162ZM19.8942 27.9332C20.3349 27.4926 20.746 27.2324 21.0061 27.0924C21.2652 26.9529 21.4349 26.8998 21.4573 26.8929L25.9047 41.3471C27.2543 40.9318 29.0505 40.1639 30.5877 38.6268L19.8942 27.9332ZM21.7152 26.8185C21.8468 26.7831 21.8593 26.7926 21.7067 26.8083C21.5608 26.8233 21.3183 26.8385 20.961 26.8385V41.9615C22.4186 41.9615 24.0595 41.8488 25.6468 41.4215L21.7152 26.8185ZM18.321 5.63854H10.601V20.7615H18.321V5.63854ZM3.03952 13.2V23.24H18.1624V13.2H3.03952ZM10.601 30.8015H18.321V15.6785H10.601V30.8015ZM18.321 30.8015C19.7356 30.8015 21.413 30.693 23.0382 30.219L18.8038 15.701C18.9184 15.6676 18.993 15.6528 19.0169 15.6483C19.0417 15.6437 19.0319 15.6466 18.9813 15.652C18.8743 15.6635 18.6618 15.6785 18.321 15.6785V30.8015ZM23.3121 30.1334C24.5642 29.7161 26.2509 28.9636 27.7077 27.5068L17.0142 16.8132C17.4435 16.384 17.8406 16.128 18.0888 15.9901C18.3375 15.8519 18.5026 15.7957 18.5298 15.7866L23.3121 30.1334ZM27.7077 27.5068C28.9875 26.227 30.0367 24.5069 30.4329 22.3935L15.569 19.6065C15.8053 18.3464 16.4278 17.3996 17.0142 16.8132L27.7077 27.5068ZM30.3614 22.7319C30.6057 21.6937 30.7224 20.6452 30.7224 19.6H15.5995C15.5995 19.5148 15.6096 19.3996 15.6405 19.2681L30.3614 22.7319ZM30.7224 19.6V17.04H15.5995V19.6H30.7224ZM30.7224 17.04C30.7224 14.4168 29.9256 11.7625 28.0839 9.52045L16.398 19.1196C16.1304 18.7938 15.9104 18.4033 15.7682 17.9827C15.6291 17.5717 15.5995 17.2371 15.5995 17.04H30.7224ZM28.0839 9.52044C26.4792 7.56692 24.4293 6.65263 22.8783 6.20948C21.3128 5.7622 19.7256 5.63854 18.321 5.63854V20.7615C18.9164 20.7615 18.9825 20.8245 18.7237 20.7505C18.4793 20.6807 17.3894 20.3264 16.398 19.1196L28.0839 9.52044ZM21.001 16.0785H10.601V31.2015H21.001V16.0785ZM3.03952 23.64V34H18.1624V23.64H3.03952ZM10.601 41.5615H20.961V26.4385H10.601V41.5615ZM20.961 41.5615C22.3038 41.5615 23.7875 41.46 25.2396 41.1044C26.6173 40.767 28.6496 40.036 30.3403 38.2718L19.4217 27.8082C19.9794 27.2262 20.5325 26.8853 20.9094 26.6968C21.2818 26.5106 21.5526 26.4375 21.6423 26.4156C21.7878 26.38 21.6181 26.4385 20.961 26.4385V41.5615ZM30.4457 38.1595C32.5983 35.8197 33.3624 32.9759 33.3624 30.4H18.2395C18.2395 30.2429 18.2616 29.8768 18.4307 29.3917C18.6073 28.8849 18.9032 28.3694 19.3163 27.9205L30.4457 38.1595ZM33.3624 30.4V27.84H18.2395V30.4H33.3624ZM33.3624 27.84C33.3624 25.304 32.6899 22.5977 30.8818 20.2394L18.8802 29.4406C18.6181 29.0988 18.4426 28.7355 18.3418 28.4069C18.2452 28.0918 18.2395 27.883 18.2395 27.84H33.3624ZM30.9786 20.3684C29.4312 18.2583 27.3457 17.2235 25.7052 16.7161C24.0787 16.2131 22.4331 16.0785 21.001 16.0785V31.2015C21.5689 31.2015 21.5699 31.2669 21.2368 31.1639C20.8896 31.0565 19.7441 30.6217 18.7834 29.3116L30.9786 20.3684Z" fill="#FF26C2"/>
</g>
<g style="mix-blend-mode:hard-light" filter="url(#filter2_ddi_721_9)">
<path d="M10.201 34.4H4.41868V40.1823H10.201V34.4ZM10.201 12.8V7.01771H4.41868V12.8H10.201ZM21.001 13.16L19.1095 18.6242L19.2045 18.657L19.3005 18.6866L21.001 13.16ZM22.601 14.08L18.3738 18.0254L18.4418 18.0982L18.5123 18.1687L22.601 14.08ZM23.361 15.4L17.7691 16.8715L17.7691 16.8716L23.361 15.4ZM23.121 21.8L17.8284 19.4712L17.7888 19.5612L17.7523 19.6525L23.121 21.8ZM21.001 23.24L19.5679 17.6381L21.001 29.0223V23.24ZM23.681 23.6L21.7895 29.0642L21.8845 29.097L21.9805 29.1266L23.681 23.6ZM25.281 24.56L20.9294 28.3677L20.9905 28.4375L21.0538 28.5054L25.281 24.56ZM26.001 26L20.3208 27.0819L20.3454 27.2112L20.3759 27.3393L26.001 26ZM26.001 32.04L31.5723 33.5876L31.5829 33.5496L31.5929 33.5116L26.001 32.04ZM25.241 33.28L21.3064 29.0428L21.228 29.1156L21.1523 29.1913L25.241 33.28ZM23.681 34.12L25.1842 39.7035L25.2833 39.6768L25.3815 39.6466L23.681 34.12ZM10.601 13.2V7.41771H4.81869V13.2H10.601ZM10.601 23.24H4.81869V29.0223H10.601V23.24ZM20.921 22.96L22.54 28.511L22.6454 28.4803L22.7495 28.4456L20.921 22.96ZM22.361 22.16L18.2723 18.0713L18.2723 18.0713L22.361 22.16ZM23.001 21L17.3724 19.6756L17.3421 19.8044L17.3177 19.9344L23.001 21ZM22.241 14.32L26.7091 10.6498L26.7091 10.6498L22.241 14.32ZM10.601 23.64V17.8577H4.81869V23.64H10.601ZM10.601 34H4.81869V39.7823H10.601V34ZM24.881 33.04L29.0557 37.0408L29.0965 36.9983L29.1363 36.9549L24.881 33.04ZM24.881 24.84L20.2181 28.2594L20.2546 28.3092L20.2921 28.3581L24.881 24.84ZM20.961 28.6177H10.201V40.1823H20.961V28.6177ZM15.9833 34.4V12.8H4.41868V34.4H15.9833ZM10.201 18.5823H18.321V7.01771H10.201V18.5823ZM18.321 18.5823C18.6623 18.5823 18.8966 18.6014 19.0412 18.6208C19.1889 18.6407 19.1983 18.6549 19.1095 18.6242L22.8924 7.69581C21.3703 7.16893 19.774 7.01771 18.321 7.01771V18.5823ZM19.3005 18.6866C19.3326 18.6965 18.8791 18.5668 18.3738 18.0254L26.8282 10.1346C25.5762 8.79324 24.056 8.05019 22.7015 7.63341L19.3005 18.6866ZM18.5123 18.1687C18.1676 17.824 17.8984 17.363 17.7691 16.8715L28.9529 13.9285C28.5569 12.4237 27.781 11.0827 26.6897 9.9913L18.5123 18.1687ZM17.7691 16.8716C17.762 16.8445 17.7787 16.8916 17.7787 17.04H29.3433C29.3433 16.0151 29.2267 14.9688 28.9529 13.9284L17.7691 16.8716ZM17.7787 17.04V19.6H29.3433V17.04H17.7787ZM17.7787 19.6C17.7787 19.6455 17.7746 19.6476 17.781 19.616C17.7876 19.5829 17.8019 19.5315 17.8284 19.4712L28.4136 24.1287C29.0604 22.6588 29.3433 21.1223 29.3433 19.6H17.7787ZM17.7523 19.6525C18.1229 18.7259 18.7262 18.1592 19.142 17.8768C19.5102 17.6267 19.7246 17.598 19.5679 17.6381L22.434 28.8419C24.209 28.3878 27.1897 27.1976 28.4897 23.9475L17.7523 19.6525ZM21.001 29.0223C21.3423 29.0223 21.5766 29.0414 21.7212 29.0608C21.8689 29.0807 21.8783 29.0949 21.7895 29.0642L25.5724 18.1358C24.0503 17.6089 22.454 17.4577 21.001 17.4577V29.0223ZM21.9805 29.1266C21.9306 29.1113 21.4355 28.9461 20.9294 28.3677L29.6326 20.7523C28.3798 19.3206 26.818 18.5154 25.3815 18.0734L21.9805 29.1266ZM21.0538 28.5054C20.8695 28.3079 20.7021 28.0717 20.5691 27.8059C20.437 27.5417 20.3608 27.2918 20.3208 27.0819L31.6811 24.9181C31.3792 23.3328 30.6586 21.8472 29.5082 20.6146L21.0538 28.5054ZM20.3759 27.3393C20.3899 27.398 20.4187 27.5552 20.4187 27.84H31.9833C31.9833 26.7915 31.8787 25.722 31.626 24.6607L20.3759 27.3393ZM20.4187 27.84V30.4H31.9833V27.84H20.4187ZM20.4187 30.4C20.4187 30.5484 20.402 30.5955 20.4091 30.5684L31.5929 33.5116C31.8667 32.4712 31.9833 31.4249 31.9833 30.4H20.4187ZM20.4296 30.4924C20.5894 29.9174 20.9146 29.4066 21.3064 29.0428L29.1755 37.5172C30.314 36.4601 31.1459 35.1226 31.5723 33.5876L20.4296 30.4924ZM21.1523 29.1913C21.4485 28.8951 21.7119 28.733 21.8496 28.6589C21.9865 28.5851 22.045 28.5736 21.9805 28.5934L25.3815 39.6466C26.5766 39.2788 28.0726 38.6258 29.3297 37.3687L21.1523 29.1913ZM22.1777 28.5365C22.1968 28.5314 22.1122 28.5551 21.8889 28.5781C21.6706 28.6006 21.366 28.6177 20.961 28.6177V40.1823C22.3392 40.1823 23.8073 40.0742 25.1842 39.7035L22.1777 28.5365ZM18.321 7.41771H10.601V18.9823H18.321V7.41771ZM4.81869 13.2V23.24H16.3833V13.2H4.81869ZM10.601 29.0223H18.321V17.4577H10.601V29.0223ZM18.321 29.0223C19.66 29.0223 21.1466 28.9174 22.54 28.511L19.3019 17.409C19.3905 17.3832 19.3635 17.4003 19.1718 17.4209C18.988 17.4407 18.7102 17.4577 18.321 17.4577V29.0223ZM22.7495 28.4456C23.8576 28.0762 25.2603 27.4381 26.4497 26.2487L18.2723 18.0713C18.5629 17.7807 18.8195 17.6195 18.9528 17.5454C19.0866 17.4711 19.1469 17.4563 19.0925 17.4744L22.7495 28.4456ZM26.4497 26.2487C27.5098 25.1885 28.3624 23.7822 28.6842 22.0656L17.3177 19.9344C17.4796 19.0712 17.9054 18.4381 18.2723 18.0713L26.4497 26.2487ZM28.6296 22.3244C28.8414 21.4238 28.9433 20.5122 28.9433 19.6H17.3787C17.3787 19.6478 17.3738 19.6695 17.3724 19.6756L28.6296 22.3244ZM28.9433 19.6V17.04H17.3787V19.6H28.9433ZM28.9433 17.04C28.9433 14.783 28.2618 12.5399 26.7091 10.6498L17.7728 17.9902C17.6404 17.829 17.5262 17.6276 17.4535 17.4127C17.3833 17.205 17.3787 17.0652 17.3787 17.04H28.9433ZM26.7091 10.6498C25.4098 9.06804 23.7293 8.30299 22.3895 7.92019C21.0386 7.53423 19.6304 7.41771 18.321 7.41771V18.9823C18.6459 18.9823 18.8821 18.9977 19.0423 19.0158C19.2054 19.0342 19.2526 19.0513 19.2125 19.0398C19.1793 19.0303 18.4588 18.8253 17.7728 17.9902L26.7091 10.6498ZM21.001 17.8577H10.601V29.4223H21.001V17.8577ZM4.81869 23.64V34H16.3833V23.64H4.81869ZM10.601 39.7823H20.961V28.2177H10.601V39.7823ZM20.961 39.7823C22.2232 39.7823 23.5522 39.6859 24.8164 39.3763C26.0237 39.0807 27.6907 38.4652 29.0557 37.0408L20.7062 29.0392C21.0966 28.6318 21.4733 28.404 21.7051 28.2882C21.8231 28.2291 21.9159 28.1929 21.974 28.1724C22.0323 28.1518 22.0648 28.1439 22.0656 28.1437C22.0666 28.1434 22.0436 28.149 21.9929 28.1573C21.9424 28.1655 21.8703 28.1753 21.774 28.1846C21.5785 28.2035 21.3111 28.2177 20.961 28.2177V39.7823ZM29.1363 36.9549C30.9268 35.0088 31.5833 32.627 31.5833 30.4H20.0187C20.0187 30.4085 20.0176 30.2446 20.1107 29.9772C20.2097 29.6932 20.3819 29.39 20.6256 29.1251L29.1363 36.9549ZM31.5833 30.4V27.84H20.0187V30.4H31.5833ZM31.5833 27.84C31.5833 25.6183 30.9968 23.3135 29.4698 21.3219L20.2921 28.3581C20.1639 28.1909 20.0838 28.0189 20.0428 27.8853C20.005 27.762 20.0187 27.7317 20.0187 27.84H31.5833ZM29.5438 21.4206C28.2915 19.7129 26.5862 18.8509 25.1795 18.4159C23.7835 17.9841 22.3314 17.8577 21.001 17.8577V29.4223C21.3136 29.4223 21.5322 29.4382 21.6713 29.4551C21.8135 29.4724 21.8329 29.4859 21.7625 29.4641C21.6491 29.4291 20.8838 29.1671 20.2181 28.2594L29.5438 21.4206Z" fill="#FB37FF" fill-opacity="0.2"/>
</g>
<g filter="url(#filter3_f_721_9)">
<path d="M10.201 34.4H6.64264V37.9583H10.201V34.4ZM10.201 12.8V9.24166H6.64264V12.8H10.201ZM21.001 13.16L19.837 16.5226L19.8954 16.5428L19.9545 16.561L21.001 13.16ZM22.601 14.08L19.9996 16.5079L20.0415 16.5528L20.0849 16.5961L22.601 14.08ZM23.361 15.4L19.9198 16.3056L19.9198 16.3056L23.361 15.4ZM23.121 21.8L19.864 20.3669L19.8396 20.4223L19.8171 20.4785L23.121 21.8ZM21.001 23.24L20.1191 19.7927L21.001 26.7983V23.24ZM23.681 23.6L22.517 26.9626L22.5754 26.9828L22.6345 27.001L23.681 23.6ZM25.281 24.56L22.6031 26.9032L22.6407 26.9462L22.6796 26.9879L25.281 24.56ZM26.001 26L22.5055 26.6658L22.5206 26.7454L22.5394 26.8242L26.001 26ZM26.001 32.04L29.4295 32.9924L29.436 32.969L29.4422 32.9456L26.001 32.04ZM25.241 33.28L22.8197 30.6725L22.7714 30.7173L22.7249 30.7639L25.241 33.28ZM23.681 34.12L24.606 37.556L24.6671 37.5396L24.7274 37.521L23.681 34.12ZM10.601 13.2V9.64167H7.04264V13.2H10.601ZM10.601 23.24H7.04264V26.7983H10.601V23.24ZM20.921 22.96L21.9173 26.376L21.9821 26.3571L22.0462 26.3357L20.921 22.96ZM22.361 22.16L19.8449 19.6439L19.8449 19.6439L22.361 22.16ZM23.001 21L19.5372 20.185L19.5186 20.2642L19.5036 20.3442L23.001 21ZM22.241 14.32L24.9906 12.0614L24.9906 12.0614L22.241 14.32ZM10.601 23.64V20.0817H7.04264V23.64H10.601ZM10.601 34H7.04264V37.5583H10.601V34ZM24.881 33.04L27.4501 35.502L27.4751 35.4759L27.4997 35.4492L24.881 33.04ZM24.881 24.84L22.0115 26.9443L22.034 26.9749L22.0571 27.005L24.881 24.84ZM20.961 30.8417H10.201V37.9583H20.961V30.8417ZM13.7593 34.4V12.8H6.64264V34.4H13.7593ZM10.201 16.3583H18.321V9.24166H10.201V16.3583ZM18.321 16.3583C19.193 16.3583 19.6537 16.4591 19.837 16.5226L22.1649 9.79742C20.9616 9.38088 19.6356 9.24166 18.321 9.24166V16.3583ZM19.9545 16.561C20.0218 16.5817 20.0701 16.6 20.1022 16.6136C20.1342 16.6272 20.148 16.6352 20.1473 16.6347C20.1445 16.6332 20.0826 16.5967 19.9996 16.5079L25.2023 11.6521C24.2883 10.6728 23.1477 10.0976 22.0474 9.75902L19.9545 16.561ZM20.0849 16.5961C20.0595 16.5707 20.0226 16.5268 19.9872 16.4655C19.9518 16.404 19.9307 16.347 19.9198 16.3056L26.8022 14.4944C26.5072 13.3735 25.9323 12.3791 25.1171 11.5639L20.0849 16.5961ZM19.9198 16.3056C19.9667 16.4838 20.0026 16.723 20.0026 17.04H27.1193C27.1193 16.1837 27.0219 15.3295 26.8022 14.4944L19.9198 16.3056ZM20.0026 17.04V19.6H27.1193V17.04H20.0026ZM20.0026 19.6C20.0026 19.9555 19.9398 20.1946 19.864 20.3669L26.378 23.2331C26.8888 22.0721 27.1193 20.8445 27.1193 19.6H20.0026ZM19.8171 20.4785C19.8999 20.2717 20.0105 20.098 20.1257 19.9623C20.2378 19.8302 20.338 19.7529 20.3916 19.7165C20.4823 19.6549 20.436 19.7116 20.1191 19.7927L21.8829 26.6873C23.4161 26.2951 25.5222 25.378 26.4248 23.1215L19.8171 20.4785ZM21.001 26.7983C21.873 26.7983 22.3337 26.8991 22.517 26.9626L24.8449 20.2374C23.6416 19.8209 22.3156 19.6817 21.001 19.6817V26.7983ZM22.6345 27.001C22.7509 27.0368 22.7867 27.0611 22.7702 27.0512C22.7613 27.0459 22.7393 27.0318 22.7089 27.0068C22.6782 26.9815 22.6416 26.9472 22.6031 26.9032L27.9589 22.2168C27.0444 21.1717 25.8781 20.5531 24.7274 20.199L22.6345 27.001ZM22.6796 26.9879C22.638 26.9433 22.5939 26.8826 22.5583 26.8113C22.5232 26.741 22.5096 26.6872 22.5055 26.6658L29.4965 25.3342C29.2696 24.1432 28.7338 23.0444 27.8823 22.1321L22.6796 26.9879ZM22.5394 26.8242C22.5993 27.0757 22.6426 27.4083 22.6426 27.84H29.7593C29.7593 26.9384 29.6693 26.0443 29.4625 25.1758L22.5394 26.8242ZM22.6426 27.84V30.4H29.7593V27.84H22.6426ZM22.6426 30.4C22.6426 30.717 22.6067 30.9562 22.5598 31.1344L29.4422 32.9456C29.6619 32.1105 29.7593 31.2563 29.7593 30.4H22.6426ZM22.5725 31.0876C22.592 31.0173 22.6259 30.9341 22.6771 30.8505C22.7281 30.7674 22.7812 30.7082 22.8197 30.6725L27.6623 35.8875C28.5064 35.1036 29.1158 34.1216 29.4295 32.9924L22.5725 31.0876ZM22.7249 30.7639C22.8405 30.6483 22.9192 30.6088 22.904 30.617C22.8979 30.6203 22.874 30.6326 22.8282 30.6512C22.7825 30.6698 22.7189 30.6931 22.6345 30.719L24.7274 37.521C25.7296 37.2126 26.8502 36.703 27.7571 35.7961L22.7249 30.7639ZM22.7559 30.684C22.4832 30.7574 21.9221 30.8417 20.961 30.8417V37.9583C22.2399 37.9583 23.4921 37.8559 24.606 37.556L22.7559 30.684ZM18.321 9.64167H10.601V16.7583H18.321V9.64167ZM7.04264 13.2V23.24H14.1593V13.2H7.04264ZM10.601 26.7983H18.321V19.6817H10.601V26.7983ZM18.321 26.7983C19.5655 26.7983 20.8137 26.6979 21.9173 26.376L19.9246 19.544C19.7483 19.5954 19.2631 19.6817 18.321 19.6817V26.7983ZM22.0462 26.3357C22.9743 26.0264 24.0221 25.5311 24.8771 24.6761L19.8449 19.6439C19.9045 19.5843 19.9544 19.5442 19.9867 19.5205C20.0189 19.497 20.0362 19.4876 20.0329 19.4895C20.0296 19.4913 20.0097 19.502 19.9693 19.5194C19.9289 19.5367 19.8719 19.5589 19.7957 19.5843L22.0462 26.3357ZM24.8771 24.6761C25.6628 23.8904 26.2695 22.8762 26.4984 21.6558L19.5036 20.3442C19.5346 20.1786 19.5922 20.0237 19.6654 19.8911C19.7368 19.7616 19.8076 19.6811 19.8449 19.6439L24.8771 24.6761ZM26.4647 21.815C26.6361 21.0865 26.7193 20.346 26.7193 19.6H19.6026C19.6026 19.814 19.5791 20.0069 19.5372 20.185L26.4647 21.815ZM26.7193 19.6V17.04H19.6026V19.6H26.7193ZM26.7193 17.04C26.7193 15.2408 26.182 13.5118 24.9906 12.0614L19.4914 16.5786C19.5266 16.6216 19.6026 16.7058 19.6026 17.04H26.7193ZM24.9906 12.0614C24.0731 10.9444 22.8543 10.3659 21.7785 10.0586C20.6959 9.74927 19.5114 9.64167 18.321 9.64167V16.7583C19.1306 16.7583 19.5993 16.8374 19.8234 16.9014C20.0543 16.9674 19.7955 16.9489 19.4914 16.5786L24.9906 12.0614ZM21.001 20.0817H10.601V27.1983H21.001V20.0817ZM7.04264 23.64V34H14.1593V23.64H7.04264ZM10.601 37.5583H20.961V30.4417H10.601V37.5583ZM20.961 37.5583C22.1223 37.5583 23.2582 37.4683 24.2874 37.2162C25.2816 36.9727 26.4921 36.5017 27.4501 35.502L22.3119 30.578C22.6565 30.2183 22.907 30.2273 22.5946 30.3038C22.3171 30.3717 21.7996 30.4417 20.961 30.4417V37.5583ZM27.4997 35.4492C28.8374 33.9952 29.3593 32.191 29.3593 30.4H22.2426C22.2426 30.6155 22.2125 30.7044 22.2108 30.709C22.21 30.7114 22.2138 30.7001 22.2253 30.6809C22.2368 30.6614 22.2503 30.6439 22.2623 30.6308L27.4997 35.4492ZM29.3593 30.4V27.84H22.2426V30.4H29.3593ZM29.3593 27.84C29.3593 26.0113 28.8805 24.2083 27.7049 22.675L22.0571 27.005C22.1082 27.0717 22.2426 27.2687 22.2426 27.84H29.3593ZM27.7504 22.7357C26.867 21.531 25.6367 20.8852 24.5224 20.5405C23.4146 20.1979 22.2043 20.0817 21.001 20.0817V27.1983C21.7976 27.1983 22.234 27.2821 22.4196 27.3395C22.5985 27.3948 22.3083 27.349 22.0115 26.9443L27.7504 22.7357Z" fill="#FB37FF"/>
</g>
<g filter="url(#filter4_f_721_9)">
<path d="M10.2 34.4H8.42083V36.1792H10.2V34.4ZM10.2 12.8V11.0208H8.42083V12.8H10.2ZM21 13.16L20.418 14.8413L20.4472 14.8514L20.4768 14.8605L21 13.16ZM22.6 14.08L21.2993 15.294L21.3203 15.3164L21.3419 15.3381L22.6 14.08ZM23.36 15.4L21.6394 15.8528L21.6394 15.8528L23.36 15.4ZM23.12 21.8L21.4915 21.0835L21.4793 21.1111L21.4681 21.1392L23.12 21.8ZM21 23.24L20.5591 21.5163L21 25.0192V23.24ZM23.68 23.6L23.098 25.2813L23.1272 25.2914L23.1568 25.3005L23.68 23.6ZM25.28 24.56L23.941 25.7316L23.9598 25.7531L23.9793 25.774L25.28 24.56ZM26 26L24.2523 26.3329L24.2598 26.3727L24.2692 26.4121L26 26ZM26 32.04L27.7143 32.5162L27.7175 32.5045L27.7206 32.4928L26 32.04ZM25.24 33.28L24.0294 31.9762L24.0052 31.9986L23.9819 32.0219L25.24 33.28ZM23.68 34.12L24.1425 35.838L24.173 35.8298L24.2032 35.8205L23.68 34.12ZM10.6 13.2V11.4208H8.82083V13.2H10.6ZM10.6 23.24H8.82083V25.0192H10.6V23.24ZM20.92 22.96L21.4182 24.668L21.4506 24.6585L21.4826 24.6479L20.92 22.96ZM22.36 22.16L21.1019 20.9019L21.1019 20.9019L22.36 22.16ZM23 21L21.2681 20.5925L21.2588 20.6321L21.2513 20.6721L23 21ZM22.24 14.32L23.6148 13.1907L23.6148 13.1907L22.24 14.32ZM10.6 23.64V21.8608H8.82083V23.64H10.6ZM10.6 34H8.82083V35.7792H10.6V34ZM24.88 33.04L26.1645 34.271L26.1771 34.2579L26.1893 34.2446L24.88 33.04ZM24.88 24.84L23.4453 25.8921L23.4565 25.9074L23.468 25.9225L24.88 24.84ZM20.96 32.6208H10.2V36.1792H20.96V32.6208ZM11.9792 34.4V12.8H8.42083V34.4H11.9792ZM10.2 14.5792H18.32V11.0208H10.2V14.5792ZM18.32 14.5792C19.3027 14.5792 19.9797 14.6896 20.418 14.8413L21.582 11.4787C20.6336 11.1504 19.524 11.0208 18.32 11.0208V14.5792ZM20.4768 14.8605C20.9667 15.0112 21.1963 15.1836 21.2993 15.294L23.9007 12.866C23.257 12.1764 22.42 11.7354 21.5232 11.4595L20.4768 14.8605ZM21.3419 15.3381C21.4943 15.4905 21.5869 15.6532 21.6394 15.8528L25.0806 14.9472C24.8664 14.1334 24.4523 13.4162 23.8581 12.8219L21.3419 15.3381ZM21.6394 15.8528C21.7295 16.1952 21.7808 16.5882 21.7808 17.04H25.3392C25.3392 16.3185 25.2571 15.6181 25.0806 14.9472L21.6394 15.8528ZM21.7808 17.04V19.6H25.3392V17.04H21.7808ZM21.7808 19.6C21.7808 20.1777 21.6761 20.664 21.4915 21.0835L24.7485 22.5165C25.1506 21.6027 25.3392 20.6223 25.3392 19.6H21.7808ZM21.4681 21.1392C21.4898 21.0849 21.507 21.109 21.3903 21.1882C21.259 21.2775 21.0042 21.4025 20.5591 21.5163L21.4409 24.9637C22.7809 24.6209 24.1873 23.9223 24.7719 22.4608L21.4681 21.1392ZM21 25.0192C21.9827 25.0192 22.6597 25.1296 23.098 25.2813L24.262 21.9187C23.3136 21.5904 22.204 21.4608 21 21.4608V25.0192ZM23.1568 25.3005C23.6214 25.4435 23.8383 25.6142 23.941 25.7316L26.619 23.3884C25.975 22.6525 25.1252 22.1832 24.2032 21.8995L23.1568 25.3005ZM23.9793 25.774C24.1136 25.9178 24.2057 26.0884 24.2523 26.3329L27.7477 25.6671C27.581 24.7916 27.1931 24.0022 26.5807 23.346L23.9793 25.774ZM24.2692 26.4121C24.3658 26.8178 24.4208 27.2908 24.4208 27.84H27.9792C27.9792 27.0558 27.9008 26.3022 27.7308 25.5879L24.2692 26.4121ZM24.4208 27.84V30.4H27.9792V27.84H24.4208ZM24.4208 30.4C24.4208 30.8518 24.3695 31.2448 24.2794 31.5872L27.7206 32.4928C27.8971 31.8219 27.9792 31.1215 27.9792 30.4H24.4208ZM24.2857 31.5638C24.2426 31.7192 24.1673 31.8482 24.0294 31.9762L26.4506 34.5838C27.0594 34.0185 27.4908 33.3208 27.7143 32.5162L24.2857 31.5638ZM23.9819 32.0219C23.9154 32.0885 23.6957 32.2537 23.1568 32.4195L24.2032 35.8205C25.051 35.5596 25.8713 35.1649 26.4981 34.5381L23.9819 32.0219ZM23.2175 32.402C22.7345 32.532 22.0006 32.6208 20.96 32.6208V36.1792C22.1594 36.1792 23.2389 36.0813 24.1425 35.838L23.2175 32.402ZM18.32 11.4208H10.6V14.9792H18.32V11.4208ZM8.82083 13.2V23.24H12.3792V13.2H8.82083ZM10.6 25.0192H18.32V21.4608H10.6V25.0192ZM18.32 25.0192C19.4889 25.0192 20.5463 24.9223 21.4182 24.668L20.4218 21.252C20.0137 21.3711 19.3377 21.4608 18.32 21.4608V25.0192ZM21.4826 24.6479C22.2666 24.3865 23.0306 24.0056 23.6181 23.4181L21.1019 20.9019C21.0494 20.9544 20.8534 21.1068 20.3574 21.2721L21.4826 24.6479ZM23.6181 23.4181C24.1843 22.8519 24.5943 22.1514 24.7487 21.3279L21.2513 20.6721C21.2457 20.7019 21.2291 20.7748 21.1019 20.9019L23.6181 23.4181ZM24.7319 21.4075C24.8709 20.8166 24.9392 20.213 24.9392 19.6H21.3808C21.3808 19.947 21.3424 20.2768 21.2681 20.5925L24.7319 21.4075ZM24.9392 19.6V17.04H21.3808V19.6H24.9392ZM24.9392 17.04C24.9392 15.6071 24.5172 14.2892 23.6148 13.1907L20.8652 15.4493C21.1895 15.8441 21.3808 16.3396 21.3808 17.04H24.9392ZM23.6148 13.1907C23.0027 12.4455 22.1533 12.0163 21.2888 11.7693C20.4208 11.5213 19.4152 11.4208 18.32 11.4208V14.9792C19.2248 14.9792 19.8725 15.0654 20.3112 15.1907C20.7533 15.317 20.8639 15.4478 20.8652 15.4493L23.6148 13.1907ZM21 21.8608H10.6V25.4192H21V21.8608ZM8.82083 23.64V34H12.3792V23.64H8.82083ZM10.6 35.7792H20.96V32.2208H10.6V35.7792ZM20.96 35.7792C22.0407 35.7792 23.0219 35.6941 23.8632 35.4881C24.687 35.2864 25.5322 34.9308 26.1645 34.271L23.5955 31.809C23.6145 31.7892 23.4997 31.9136 23.0168 32.0319C22.5514 32.1459 21.8793 32.2208 20.96 32.2208V35.7792ZM26.1893 34.2446C27.1649 33.1843 27.5792 31.8422 27.5792 30.4H24.0208C24.0208 31.1445 23.8218 31.5624 23.5707 31.8354L26.1893 34.2446ZM27.5792 30.4V27.84H24.0208V30.4H27.5792ZM27.5792 27.84C27.5792 26.3256 27.1864 24.9242 26.292 23.7575L23.468 25.9225C23.8003 26.3558 24.0208 26.9544 24.0208 27.84H27.5792ZM26.3147 23.7879C25.7263 22.9855 24.8762 22.5126 23.9957 22.2403C23.1185 21.969 22.1017 21.8608 21 21.8608V25.4192C21.8983 25.4192 22.5282 25.511 22.9443 25.6397C23.1467 25.7023 23.2745 25.7664 23.3502 25.8147C23.4227 25.8609 23.4439 25.8902 23.4453 25.8921L26.3147 23.7879Z" fill="white"/>
</g>
<defs>
<filter id="filter0_f_721_9" x="0.200928" y="2.7998" width="36" height="41.6001" filterUnits="userSpaceOnUse" color-interpolation-filters="sRGB">
<feFlood flood-opacity="0" result="BackgroundImageFix"/>
<feBlend mode="normal" in="SourceGraphic" in2="BackgroundImageFix" result="shape"/>
<feGaussianBlur stdDeviation="5" result="effect1_foregroundBlur_721_9"/>
</filter>
<filter id="filter1_f_721_9" x="5.70853" y="8.30741" width="24.9848" height="30.5849" filterUnits="userSpaceOnUse" color-interpolation-filters="sRGB">
<feFlood flood-opacity="0" result="BackgroundImageFix"/>
<feBlend mode="normal" in="SourceGraphic" in2="BackgroundImageFix" result="shape"/>
<feGaussianBlur stdDeviation="2.2462" result="effect1_foregroundBlur_721_9"/>
</filter>
<filter id="filter2_ddi_721_9" x="4.36081" y="11.4521" width="27.6802" height="33.2803" filterUnits="userSpaceOnUse" color-interpolation-filters="sRGB">
<feFlood flood-opacity="0" result="BackgroundImageFix"/>
<feColorMatrix in="SourceAlpha" type="matrix" values="0 0 0 0 0 0 0 0 0 0 0 0 0 0 0 0 0 0 127 0" result="hardAlpha"/>
<feOffset dy="5.78229"/>
<feGaussianBlur stdDeviation="2.22396"/>
<feColorMatrix type="matrix" values="0 0 0 0 0.3 0 0 0 0 0 0 0 0 0 0.26 0 0 0 0.7 0"/>
<feBlend mode="multiply" in2="BackgroundImageFix" result="effect1_dropShadow_721_9"/>
<feColorMatrix in="SourceAlpha" type="matrix" values="0 0 0 0 0 0 0 0 0 0 0 0 0 0 0 0 0 0 127 0" result="hardAlpha"/>
<feOffset dy="4.4924"/>
<feGaussianBlur stdDeviation="2.92006"/>
<feColorMatrix type="matrix" values="0 0 0 0 0.6 0 0 0 0 0 0 0 0 0 0.6 0 0 0 1 0"/>
<feBlend mode="color-dodge" in2="effect1_dropShadow_721_9" result="effect2_dropShadow_721_9"/>
<feBlend mode="normal" in="SourceGraphic" in2="effect2_dropShadow_721_9" result="shape"/>
<feColorMatrix in="SourceAlpha" type="matrix" values="0 0 0 0 0 0 0 0 0 0 0 0 0 0 0 0 0 0 127 0" result="hardAlpha"/>
<feOffset dx="-0.578229" dy="1.15646"/>
<feGaussianBlur stdDeviation="0.289115"/>
<feComposite in2="hardAlpha" operator="arithmetic" k2="-1" k3="1"/>
<feColorMatrix type="matrix" values="0 0 0 0 1 0 0 0 0 1 0 0 0 0 1 0 0 0 0.5 0"/>
<feBlend mode="normal" in2="shape" result="effect3_innerShadow_721_9"/>
</filter>
<filter id="filter3_f_721_9" x="9.31134" y="11.9102" width="17.7792" height="23.3793" filterUnits="userSpaceOnUse" color-interpolation-filters="sRGB">
<feFlood flood-opacity="0" result="BackgroundImageFix"/>
<feBlend mode="normal" in="SourceGraphic" in2="BackgroundImageFix" result="shape"/>
<feGaussianBlur stdDeviation="0.444792" result="effect1_foregroundBlur_721_9"/>
</filter>
<filter id="filter4_f_721_9" x="9.6069" y="12.2067" width="17.1861" height="22.7862" filterUnits="userSpaceOnUse" color-interpolation-filters="sRGB">
<feFlood flood-opacity="0" result="BackgroundImageFix"/>
<feBlend mode="normal" in="SourceGraphic" in2="BackgroundImageFix" result="shape"/>
<feGaussianBlur stdDeviation="0.296528" result="effect1_foregroundBlur_721_9"/>
</filter>
</defs>
</svg>
